<?xml version="1.0" standalone="no"?>
<!DOCTYPE svg PUBLIC "-//W3C//DTD SVG 20010904//EN"
 "http://www.w3.org/TR/2001/REC-SVG-20010904/DTD/svg10.dtd">
<svg version="1.0" xmlns="http://www.w3.org/2000/svg"
 width="700.000000pt" height="700.000000pt" viewBox="0 0 700.000000 700.000000"
 preserveAspectRatio="xMidYMid meet">
<metadata>
Created by potrace 1.14, written by Peter Selinger 2001-2017
</metadata>
<g transform="translate(0.000000,700.000000) scale(0.100000,-0.100000)"
fill="#000000" stroke="none">
<path d="M4480 6086 c-110 -32 -176 -72 -260 -156 -114 -113 -170 -240 -174
-395 -11 -396 371 -692 757 -586 440 120 589 655 273 976 -87 88 -180 142
-297 172 -13 3 -69 7 -124 9 -80 2 -115 -2 -175 -20z"/>
<path d="M6920 5303 c-148 -111 -227 -179 -355 -308 -140 -140 -159 -160 -250
-275 -69 -86 -65 -81 -108 -140 -86 -116 -229 -346 -322 -515 -250 -458 -346
-610 -457 -725 -71 -74 -108 -101 -187 -141 -107 -52 -208 -72 -371 -73 -275
-1 -398 30 -670 170 -59 30 -277 187 -335 240 -11 11 -45 39 -75 64 -30 25
-61 52 -70 60 -9 8 -47 42 -84 75 -38 33 -74 65 -80 70 -97 89 -360 303 -486
396 -322 239 -680 425 -1045 543 -103 33 -349 100 -405 110 -42 7 -104 18
-125 23 -35 7 -128 22 -175 28 -25 3 -61 8 -80 10 -199 26 -425 39 -680 39
-158 0 -261 -4 -515 -17 l-40 -2 0 -380 0 -380 35 2 c19 1 93 5 165 10 361 21
786 4 1065 -42 47 -8 103 -17 125 -21 22 -3 108 -23 190 -44 389 -99 732 -265
1069 -519 107 -81 427 -346 446 -370 4 -5 87 -77 160 -139 14 -11 36 -31 50
-43 205 -179 461 -354 650 -446 166 -81 393 -153 535 -170 21 -2 42 -6 46 -8
3 -3 48 -8 100 -12 182 -14 418 -6 527 18 98 21 65 1 -64 -40 -281 -87 -454
-114 -734 -115 -178 -1 -272 6 -390 30 -307 62 -467 128 -1160 481 -222 113
-410 196 -670 296 -149 58 -485 151 -660 183 -122 23 -320 52 -395 60 -38 3
-81 8 -95 10 -170 21 -713 22 -970 1 l-25 -2 -3 -382 -2 -382 22 4 c112 18
697 28 839 14 227 -22 338 -37 479 -64 185 -36 451 -114 635 -187 183 -72 307
-130 680 -319 572 -288 814 -383 1160 -453 60 -12 153 -28 180 -31 239 -25
547 -25 725 0 14 2 48 6 75 10 28 3 57 8 65 10 8 2 35 7 60 10 24 4 47 8 50
10 3 2 26 6 50 10 57 8 279 69 345 94 86 32 92 33 34 3 -81 -42 -285 -115
-419 -150 -160 -43 -304 -69 -520 -96 -191 -24 -657 -25 -779 -1 -10 2 -42 6
-72 10 -30 3 -79 10 -109 15 -30 5 -71 11 -90 14 -29 4 -120 22 -265 52 -11 2
-85 20 -165 40 -80 19 -154 37 -164 40 -19 3 -94 24 -406 109 -91 25 -174 47
-185 50 -11 2 -81 20 -155 39 -75 19 -189 46 -255 61 -66 14 -131 28 -145 31
-14 3 -36 8 -50 10 -54 9 -86 14 -110 19 -22 5 -149 25 -240 39 -19 3 -66 8
-105 12 -38 3 -73 8 -76 10 -43 25 -896 25 -1028 -1 -9 -2 -26 -4 -38 -4 l-23
-1 0 -386 c0 -212 4 -383 8 -380 5 3 42 8 83 12 41 3 77 8 80 10 27 15 475 23
669 10 113 -7 136 -9 235 -20 135 -16 126 -15 390 -62 17 -2 100 -21 185 -40
85 -19 163 -37 173 -39 10 -2 138 -36 285 -76 414 -110 475 -126 664 -174 159
-40 426 -96 519 -109 20 -3 42 -7 50 -10 8 -3 37 -7 64 -10 28 -3 59 -8 70
-10 11 -2 54 -7 95 -11 41 -4 83 -9 94 -11 114 -21 642 -21 821 1 17 2 55 6
85 10 30 4 69 8 85 11 17 2 44 6 60 8 204 28 467 90 660 156 66 22 127 42 135
45 33 9 235 96 410 178 247 114 323 144 480 186 144 38 332 62 510 65 l75 1 0
379 0 379 -95 -2 c-52 -1 -117 -4 -145 -6 -150 -12 -198 -17 -218 -21 -12 -2
-39 -6 -62 -9 -22 -3 -51 -8 -65 -10 -14 -3 -36 -7 -50 -10 -105 -19 -282 -70
-394 -114 -44 -17 -81 -29 -82 -28 -2 1 18 14 44 27 54 28 238 141 297 183 22
15 58 39 80 54 22 14 42 29 45 33 3 4 12 11 21 16 9 5 34 23 55 39 96 75 242
193 269 216 52 45 129 112 189 164 32 28 72 62 89 77 l31 26 0 472 c1 260 -2
474 -5 476 -15 9 -321 -219 -459 -342 -87 -78 -317 -276 -400 -344 -93 -77
-96 -77 -39 -5 91 115 204 285 276 415 16 30 43 78 58 105 15 28 52 95 83 150
159 289 274 468 401 625 l85 105 1 508 c0 279 0 507 0 507 0 0 -34 -26 -75
-57z"/>
</g>
</svg>
