<svg width="207" height="207" fill="none" xmlns="http://www.w3.org/2000/svg"><path d="M33.887 114.657h9.472a10.185 10.185 0 002.132 4.342c2.368 2.894 5.736 4.341 10.103 4.341 3.631 0 6.5-.894 8.604-2.684 2.158-1.841 3.237-4.104 3.237-6.788 0-3.052-.974-5.446-2.921-7.183-1.894-1.789-4.605-2.684-8.13-2.684h-13.42v-7.893l16.577-11.84v-.395H36.65V75.19h36.31v8.604l-14.208 10.34-3.947 1.58v.394l1.263-.158c1.736-.158 2.763-.237 3.078-.237 4.947 0 9.078 1.71 12.393 5.131 3.315 3.42 4.973 7.762 4.973 13.024 0 5.052-1.947 9.341-5.841 12.866-3.894 3.526-8.92 5.289-15.077 5.289-8.156 0-14.182-2.894-18.076-8.683-1.684-2.473-2.894-5.367-3.63-8.683zm46.609-2.368c0-2.525.552-5.157 1.657-7.893 1.158-2.789 2.263-4.973 3.316-6.552 1.105-1.63 2.604-3.657 4.499-6.078l12.629-16.576h10.656l-11.919 15.55-3.473 3v.395l1.579-.553c1.579-.421 3.289-.631 5.131-.631 5.157 0 9.524 1.868 13.103 5.604 3.631 3.683 5.446 8.262 5.446 13.734 0 5.578-1.999 10.262-5.999 14.051-3.999 3.789-9.104 5.683-15.313 5.683-6.21 0-11.314-1.894-15.313-5.683-4-3.789-6-8.473-6-14.051zm12.708-8.209c-2.157 2.105-3.236 4.842-3.236 8.209 0 3.368 1.079 6.131 3.236 8.289 2.158 2.104 5.026 3.157 8.604 3.157 3.578 0 6.446-1.053 8.604-3.157 2.157-2.158 3.236-4.921 3.236-8.289 0-3.367-1.079-6.104-3.236-8.209-2.158-2.157-5.026-3.236-8.604-3.236-3.578 0-6.446 1.079-8.604 3.236zm42.564 19.734c-4.999-5.473-7.498-12.472-7.498-20.997s2.499-15.523 7.498-20.996c4.999-5.473 11.051-8.21 18.155-8.21 7.104 0 13.156 2.737 18.155 8.21 4.999 5.472 7.499 12.471 7.499 20.996 0 8.525-2.5 15.524-7.499 20.997-4.999 5.473-11.051 8.209-18.155 8.209-7.104 0-13.156-2.736-18.155-8.209zm6.473-36.152c-3 3.578-4.499 8.63-4.499 15.155 0 6.526 1.499 11.577 4.499 15.156 3.052 3.578 6.946 5.367 11.682 5.367 4.736 0 8.604-1.789 11.604-5.367 3.052-3.579 4.578-8.63 4.578-15.156 0-6.525-1.526-11.577-4.578-15.155-3-3.579-6.868-5.368-11.604-5.368-4.736 0-8.63 1.79-11.682 5.368z" fill="#fff"/><path fill-rule="evenodd" clip-rule="evenodd" d="M196.667 103.667c0 51.362-41.638 93-93 93-51.363 0-93-41.638-93-93 0-51.363 41.637-93 93-93 19.228 0 37.093 5.835 51.921 15.831a19.01 19.01 0 00-.255 3.113c0 10.463 8.482 18.944 18.945 18.944 1.37 0 2.707-.145 3.995-.422 11.554 15.498 18.394 34.717 18.394 55.534zm-36.592-86.593a18.9 18.9 0 0114.203-6.408c10.462 0 18.944 8.482 18.944 18.945a18.89 18.89 0 01-5.748 13.593c12.285 17 19.526 37.885 19.526 60.463C207 160.736 160.736 207 103.667 207 46.597 207 .333 160.736.333 103.667.333 46.597 46.597.333 103.667.333c20.813 0 40.189 6.154 56.408 16.74z" fill="#fff"/></svg>