<svg width="341" height="134" fill="none" xmlns="http://www.w3.org/2000/svg"><path d="M0 104.383V84.59L42.283 3.622h22.491L22.491 84.59h41.384V54.002h20.692V84.59h17.992v19.793H84.567v25.19H63.875v-25.19H0z" fill="url(#paint0_linear_795_26375)"/><path d="M127.742 114.459c-11.395-12.475-17.093-28.43-17.093-47.862 0-19.432 5.698-35.385 17.093-47.86C139.138 6.26 152.932.023 169.126.023s29.988 6.237 41.384 18.712c11.395 12.476 17.093 28.43 17.093 47.861 0 19.433-5.698 35.387-17.093 47.862-11.396 12.475-25.19 18.712-41.384 18.712s-29.988-6.237-41.384-18.712zm14.754-82.408c-6.837 8.157-10.255 19.672-10.255 34.546 0 14.875 3.418 26.39 10.255 34.547 6.958 8.157 15.834 12.235 26.63 12.235s19.612-4.078 26.449-12.235c6.958-8.157 10.436-19.672 10.436-34.547 0-14.874-3.478-26.389-10.436-34.546-6.837-8.157-15.653-12.235-26.449-12.235-10.796 0-19.672 4.079-26.63 12.235z" fill="url(#paint1_linear_795_26375)"/><path d="M238.441 104.383V84.59l42.283-80.968h22.491L260.932 84.59h41.383V54.002h20.692V84.59H341v19.793h-17.993v25.19h-20.692v-25.19h-63.874z" fill="url(#paint2_linear_795_26375)"/><defs><linearGradient id="paint0_linear_795_26375" x1="169.345" y1="26.216" x2="169.345" y2="125" gradientUnits="userSpaceOnUse"><stop stop-color="#574E45"/><stop offset="1" stop-color="#ECECEB"/></linearGradient><linearGradient id="paint1_linear_795_26375" x1="169.345" y1="26.216" x2="169.345" y2="125" gradientUnits="userSpaceOnUse"><stop stop-color="#574E45"/><stop offset="1" stop-color="#ECECEB"/></linearGradient><linearGradient id="paint2_linear_795_26375" x1="169.345" y1="26.216" x2="169.345" y2="125" gradientUnits="userSpaceOnUse"><stop stop-color="#574E45"/><stop offset="1" stop-color="#ECECEB"/></linearGradient></defs></svg>