<svg width="259" height="101" fill="none" xmlns="http://www.w3.org/2000/svg"><g opacity=".9"><path d="M0 79.162V64.15L32.115 2.73h17.083L17.083 64.15h31.432V40.946H64.23v23.203h13.666v15.013H64.231V98.27H48.515V79.162H0z" fill="url(#paint0_linear_40000027_3183)"/><path d="M97.024 86.805C88.37 77.342 84.041 65.24 84.041 50.5c0-14.74 4.328-26.842 12.983-36.305C105.68 4.732 116.157 0 128.456 0c12.3 0 22.777 4.732 31.432 14.195 8.656 9.463 12.983 21.565 12.983 36.305 0 14.74-4.327 26.842-12.983 36.305C151.233 96.268 140.756 101 128.456 101c-12.299 0-22.777-4.731-31.432-14.195zm11.206-62.51c-5.193 6.187-7.789 14.922-7.789 26.205 0 11.283 2.596 20.018 7.789 26.205 5.285 6.188 12.027 9.282 20.226 9.282 8.2 0 14.896-3.094 20.09-9.282 5.284-6.187 7.926-14.922 7.926-26.205 0-11.283-2.642-20.018-7.926-26.205-5.194-6.188-11.89-9.282-20.09-9.282-8.199 0-14.941 3.094-20.226 9.282z" fill="url(#paint1_linear_40000027_3183)"/><path d="M181.103 79.162V64.15l32.115-61.42h17.083l-32.115 61.42h31.432V40.946h15.716v23.203H259v15.013h-13.666V98.27h-15.716V79.162h-48.515z" fill="url(#paint2_linear_40000027_3183)"/></g><defs><linearGradient id="paint0_linear_40000027_3183" x1="128.622" y1="19.868" x2="128.622" y2="94.802" gradientUnits="userSpaceOnUse"><stop stop-color="#574E45"/><stop offset="1" stop-color="#D1CFCF"/></linearGradient><linearGradient id="paint1_linear_40000027_3183" x1="128.622" y1="19.868" x2="128.622" y2="94.802" gradientUnits="userSpaceOnUse"><stop stop-color="#574E45"/><stop offset="1" stop-color="#D1CFCF"/></linearGradient><linearGradient id="paint2_linear_40000027_3183" x1="128.622" y1="19.868" x2="128.622" y2="94.802" gradientUnits="userSpaceOnUse"><stop stop-color="#574E45"/><stop offset="1" stop-color="#D1CFCF"/></linearGradient></defs></svg>