<svg width="226" height="76" fill="none" xmlns="http://www.w3.org/2000/svg"><path d="M15.933 73.82c-.574 0-1.135-.007-1.706-.02a23.937 23.937 0 01-3.527-.308 11.1 11.1 0 01-3.125-1.034 10.2 10.2 0 01-2.636-1.918 10.04 10.04 0 01-1.926-2.635 10.773 10.773 0 01-1.024-3.126 23.42 23.42 0 01-.314-3.538 171.84 171.84 0 01-.028-1.723V15.932s.017-1.304.028-1.688c.014-1.183.118-2.364.312-3.532a10.86 10.86 0 011.025-3.136 10.139 10.139 0 011.916-2.638A10.5 10.5 0 017.574 3.01a10.987 10.987 0 013.12-1.026 23.745 23.745 0 013.538-.31l1.702-.023h193.903l1.723.024a23.38 23.38 0 013.507.307c1.096.186 2.158.535 3.152 1.034a10.555 10.555 0 014.557 4.566c.491.98.832 2.029 1.01 3.11.195 1.178.305 2.368.328 3.562.005.534.005 1.108.005 1.68.015.707.015 1.38.015 2.06V57.48c0 .686 0 1.355-.015 2.029 0 .614 0 1.175-.007 1.754a23.975 23.975 0 01-.323 3.497 10.832 10.832 0 01-1.019 3.151 10.337 10.337 0 01-1.916 2.615 10.216 10.216 0 01-2.64 1.929 11.06 11.06 0 01-3.147 1.037c-1.167.19-2.346.294-3.527.308a72.98 72.98 0 01-1.693.02l-2.046.004-191.868-.004z" fill="#F6F6F3"/><path d="M47.163 37.529a9.709 9.709 0 014.624-8.147 9.939 9.939 0 00-7.83-4.234c-3.296-.345-6.49 1.972-8.169 1.972-1.711 0-4.296-1.937-7.08-1.88a10.428 10.428 0 00-8.776 5.352c-3.794 6.57-.964 16.226 2.67 21.536 1.82 2.6 3.945 5.505 6.726 5.402 2.722-.113 3.738-1.735 7.023-1.735 3.255 0 4.208 1.735 7.046 1.67 2.92-.048 4.76-2.612 6.515-5.237a21.511 21.511 0 002.98-6.068 9.383 9.383 0 01-5.729-8.631zm-5.359-15.874a9.56 9.56 0 002.187-6.849 9.727 9.727 0 00-6.294 3.257 9.095 9.095 0 00-2.244 6.595 8.042 8.042 0 006.35-3.003zm38.011 29.552h-8.931l-2.145 6.333h-3.783l8.46-23.43h3.93l8.459 23.43h-3.847l-2.143-6.333zm-8.006-2.922h7.079l-3.49-10.278H75.3l-3.49 10.278zm32.265.715c0 5.308-2.841 8.719-7.129 8.719a5.792 5.792 0 01-5.375-2.99h-.08v8.462h-3.507V40.457h3.394V43.3h.064a6.06 6.06 0 015.44-3.02c4.335 0 7.193 3.427 7.193 8.72zm-3.604 0c0-3.459-1.787-5.733-4.514-5.733-2.68 0-4.481 2.322-4.481 5.733 0 3.441 1.802 5.746 4.48 5.746 2.728 0 4.515-2.257 4.515-5.746zm22.407 0c0 5.308-2.843 8.719-7.13 8.719a5.791 5.791 0 01-5.375-2.99h-.081v8.462h-3.506V40.457h3.394V43.3h.064a6.065 6.065 0 015.439-3.02c4.336 0 7.195 3.427 7.195 8.72zm-3.605 0c0-3.459-1.788-5.733-4.515-5.733-2.679 0-4.481 2.322-4.481 5.733 0 3.441 1.802 5.746 4.481 5.746 2.727 0 4.515-2.257 4.515-5.746zm16.029 2.012c.26 2.323 2.517 3.849 5.601 3.849 2.956 0 5.082-1.526 5.082-3.621 0-1.819-1.282-2.907-4.319-3.654l-3.036-.731c-4.303-1.04-6.3-3.052-6.3-6.317 0-4.042 3.523-6.819 8.524-6.819 4.952 0 8.346 2.777 8.461 6.82h-3.54c-.212-2.339-2.145-3.75-4.969-3.75-2.825 0-4.758 1.428-4.758 3.506 0 1.657 1.235 2.631 4.255 3.377l2.581.634c4.807 1.137 6.803 3.068 6.803 6.495 0 4.384-3.49 7.13-9.044 7.13-5.196 0-8.704-2.682-8.931-6.92h3.59zm21.956-14.596v4.043h3.249v2.776h-3.249v9.418c0 1.463.651 2.145 2.079 2.145.385-.007.77-.034 1.153-.081v2.76a9.627 9.627 0 01-1.948.162c-3.458 0-4.807-1.3-4.807-4.612v-9.791h-2.484v-2.777h2.484v-4.043h3.523zM162.385 49c0-5.374 3.166-8.752 8.102-8.752 4.953 0 8.103 3.378 8.103 8.752 0 5.39-3.134 8.753-8.103 8.753-4.968 0-8.102-3.363-8.102-8.753zm12.633 0c0-3.687-1.69-5.863-4.531-5.863-2.841 0-4.531 2.193-4.531 5.863 0 3.702 1.69 5.862 4.531 5.862 2.841 0 4.531-2.16 4.531-5.862zm6.464-8.543h3.344v2.908h.081a4.074 4.074 0 014.109-3.087c.404 0 .807.043 1.201.131v3.28a4.898 4.898 0 00-1.575-.212 3.533 3.533 0 00-3.654 3.93V57.54h-3.506V40.457zm24.902 12.066c-.472 3.101-3.492 5.23-7.356 5.23-4.969 0-8.054-3.33-8.054-8.672 0-5.358 3.101-8.833 7.907-8.833 4.726 0 7.698 3.247 7.698 8.426v1.202h-12.065v.212a4.442 4.442 0 001.206 3.456 4.438 4.438 0 003.389 1.382 3.864 3.864 0 003.945-2.403h3.33zm-11.853-5.098h8.54a4.108 4.108 0 00-4.19-4.336 4.321 4.321 0 00-4.022 2.672 4.32 4.32 0 00-.328 1.664zM71.37 16.474a4.98 4.98 0 015.297 5.594c0 3.596-1.944 5.664-5.297 5.664h-4.067V16.474h4.067zm-2.318 9.666h2.123a3.54 3.54 0 003.713-4.05 3.55 3.55 0 00-3.713-4.025h-2.123v8.075zm9.591-2.657a4.026 4.026 0 118.013 0 4.026 4.026 0 11-8.013 0zm6.288 0c0-1.842-.827-2.92-2.279-2.92-1.457 0-2.277 1.078-2.277 2.92 0 1.856.82 2.925 2.277 2.925 1.452 0 2.28-1.077 2.28-2.925zm12.377 4.249h-1.74l-1.755-6.257h-.133l-1.749 6.257H90.21l-2.342-8.496h1.7l1.522 6.483h.126l1.746-6.483h1.609l1.747 6.483h.132l1.515-6.483h1.677l-2.333 8.496zm4.302-8.495h1.614v1.35h.126a2.542 2.542 0 012.535-1.514 2.764 2.764 0 012.941 3.16v5.5h-1.677v-5.08c0-1.364-.593-2.043-1.833-2.043a1.953 1.953 0 00-1.938 1.324 1.94 1.94 0 00-.091.829v4.97h-1.677v-8.496zm9.888-3.317h1.676v11.813h-1.676V15.92zm4.007 7.559a4.033 4.033 0 011.029-3.09 4.022 4.022 0 014.607-.974 4.022 4.022 0 012.378 4.064 4.037 4.037 0 01-2.376 4.07 4.03 4.03 0 01-4.612-.975 4.022 4.022 0 01-1.026-3.095zm6.289 0c0-1.842-.827-2.919-2.279-2.919-1.458 0-2.278 1.077-2.278 2.919 0 1.856.82 2.925 2.278 2.925 1.452 0 2.279-1.076 2.279-2.925zm3.491 1.853c0-1.53 1.138-2.411 3.16-2.537l2.301-.132v-.734c0-.897-.593-1.404-1.739-1.404-.936 0-1.585.344-1.771.945h-1.623c.171-1.46 1.544-2.396 3.471-2.396 2.13 0 3.331 1.06 3.331 2.855v5.805h-1.614V26.54h-.132a2.866 2.866 0 01-2.552 1.334 2.572 2.572 0 01-1.98-.643 2.57 2.57 0 01-.852-1.9zm5.461-.726v-.71l-2.075.132c-1.17.078-1.7.476-1.7 1.225 0 .765.663 1.21 1.575 1.21a2.004 2.004 0 002.2-1.857zm3.873-1.126c0-2.684 1.38-4.384 3.527-4.384a2.798 2.798 0 012.605 1.49h.126V15.92h1.676v11.813h-1.606V26.39h-.133a2.948 2.948 0 01-2.668 1.483c-2.162 0-3.527-1.701-3.527-4.392zm1.732 0c0 1.803.85 2.887 2.27 2.887 1.413 0 2.287-1.1 2.287-2.879 0-1.77-.883-2.886-2.287-2.886-1.411 0-2.27 1.092-2.27 2.879zm13.14.003a4.016 4.016 0 011.028-3.091 4.02 4.02 0 014.607-.974 4.02 4.02 0 012.378 4.065 4.036 4.036 0 01-2.376 4.07 4.03 4.03 0 01-4.612-.975 4.021 4.021 0 01-1.025-3.095zm6.288 0c0-1.842-.827-2.92-2.279-2.92-1.457 0-2.277 1.078-2.277 2.92 0 1.856.82 2.925 2.277 2.925 1.452 0 2.279-1.077 2.279-2.925zm3.974-4.246h1.615v1.35h.125a2.542 2.542 0 012.535-1.514 2.764 2.764 0 012.941 3.16v5.5h-1.677v-5.08c0-1.364-.593-2.043-1.833-2.043a1.953 1.953 0 00-1.938 1.324 1.94 1.94 0 00-.091.829v4.97h-1.677v-8.496zm16.691-2.116v2.154h1.841v1.412h-1.841v4.37c0 .89.367 1.279 1.201 1.279.214 0 .427-.014.64-.039v1.397a5.52 5.52 0 01-.912.085c-1.865 0-2.608-.655-2.608-2.294v-4.798h-1.348v-1.412h1.348v-2.154h1.679zm4.131-1.201h1.662v4.682h.133a2.61 2.61 0 012.59-1.522 2.799 2.799 0 012.926 3.167v5.486h-1.678V22.66c0-1.357-.632-2.044-1.817-2.044a1.984 1.984 0 00-2.139 2.154v4.962h-1.677V15.92zm17.088 9.516a3.45 3.45 0 01-3.682 2.459 3.856 3.856 0 01-3.792-2.73 3.861 3.861 0 01-.133-1.656 3.93 3.93 0 01.946-3.113 3.922 3.922 0 012.972-1.326c2.364 0 3.79 1.616 3.79 4.284v.585h-5.999v.093a2.244 2.244 0 002.262 2.434 2.04 2.04 0 002.022-1.03h1.614zm-5.898-2.738h4.291a2.055 2.055 0 00-1.258-2.044 2.049 2.049 0 00-.833-.157 2.177 2.177 0 00-2.041 1.355 2.172 2.172 0 00-.159.846z" fill="#000"/></svg>