<svg width="1440" height="582" fill="none" xmlns="http://www.w3.org/2000/svg"><path d="M1199.74 528.395c92.32-34.705 163.7-80.001 221.8-116.987v-.004c6.08-3.909 12.16-7.818 18.23-11.564V256.458c-41.88 18.737-81.51 43.829-122.04 69.573-24.54 15.641-50.21 31.935-77.46 47.577 37.83-30.958 65.53-67.455 91.65-102.323 29.49-39.43 60.79-80.815 108.08-119.594V0c-133.3 66.966-195.68 149.736-246.12 216.865-67.78 90.103-97.05 120.897-209.186 117.801-98.098-2.93-157.528-40.998-239.84-93.723l-.197-.127C603.697 150.551 430.086 39.593.225 63.381v114.054c372.216-22.974 508.447 64.196 640.175 148.596 90.296 57.841 183.744 117.638 337.539 122.2 6.755.163 13.511.326 20.041.326 32.65 0 61.47-2.77 87.82-7.332-35.81 10.591-74.54 18.9-117.769 23.3-149.517 15.478-238.011-17.597-350.373-59.634C480.525 353.567 312.094 290.837 0 309.086v113.891c275.093-18.244 412.45 33.048 545.497 82.731l.104.039C646.03 543.385 749.385 582 896.2 582c29.498 0 60.798-1.629 94.124-5.051 55.166-5.703 104.706-16.13 149.966-29.328l59.45-19.226z" fill="#F9F9F9"/></svg>