<svg width="1440" height="617" fill="none" xmlns="http://www.w3.org/2000/svg"><path fill="#EEE" d="M0 0h1440v617H0z"/><path d="M1440 495.115h-.67L1440 617H0V512.385c205.135-17.922 367.262 13.848 512.951 42.685l.058.011c129.905 25.738 252.385 50.004 396.476 39.09 114.385-8.635 172.715-26.882 230.805-46.596-45.26 13.197-94.8 23.624-149.966 29.326-33.326 3.421-64.626 5.051-94.124 5.051-146.815 0-250.17-38.613-350.599-76.247l-.104-.039C412.45 455.987 275.093 404.699 0 422.941V309.06c312.094-18.247 480.525 44.477 617.658 95.797 112.362 42.034 200.856 75.106 350.373 59.629 43.229-4.399 81.959-12.708 117.769-23.298-26.35 4.562-55.17 7.332-87.82 7.332-6.53 0-13.286-.163-20.041-.326-153.795-4.562-247.243-64.354-337.539-122.19C508.672 241.611 372.441 154.449.225 177.42V63.376c429.861-23.786 603.472 87.162 744.432 177.42l.197.127c82.312 52.721 141.742 90.785 239.84 93.715 112.136 3.096 141.406-27.696 209.186-117.791C1244.32 149.724 1306.7 66.96 1440 0v151.679c-47.29 38.775-78.59 80.157-108.08 119.583-26.12 34.865-53.82 71.36-91.65 102.314 27.25-15.64 52.92-31.932 77.46-47.572 40.53-25.742 80.16-50.831 122.04-69.567v143.37c-6.07 3.746-12.15 7.655-18.23 11.565v.002c-58.1 36.983-129.48 82.275-221.8 116.977 59.55-18.536 127.4-33.177 239.59-33.236l-.01-.326.68.326z" fill="#fff"/></svg>