<svg width="226" height="76" fill="none" xmlns="http://www.w3.org/2000/svg"><path d="M15.933 74.349c-.574 0-1.135-.008-1.706-.02a23.937 23.937 0 01-3.527-.308 11.1 11.1 0 01-3.125-1.034 10.198 10.198 0 01-2.636-1.918 10.04 10.04 0 01-1.926-2.635 10.779 10.779 0 01-1.024-3.127c-.194-1.17-.3-2.352-.314-3.538-.012-.398-.028-1.722-.028-1.722V16.46s.017-1.305.028-1.688a23.34 23.34 0 01.312-3.532 10.86 10.86 0 011.025-3.137 10.139 10.139 0 011.916-2.637 10.5 10.5 0 012.646-1.93 10.987 10.987 0 013.12-1.026 23.745 23.745 0 013.538-.31l1.702-.022h193.903l1.723.024a23.38 23.38 0 013.507.306c1.096.187 2.158.535 3.152 1.034a10.555 10.555 0 014.557 4.566c.491.98.832 2.03 1.01 3.111.195 1.178.305 2.368.328 3.561.005.534.005 1.108.005 1.68.015.707.015 1.38.015 2.06v39.487c0 .686 0 1.355-.015 2.03 0 .613 0 1.175-.007 1.753a23.974 23.974 0 01-.323 3.498 10.832 10.832 0 01-1.019 3.15 10.337 10.337 0 01-1.916 2.615 10.214 10.214 0 01-2.64 1.93 11.06 11.06 0 01-3.147 1.037c-1.167.19-2.346.293-3.527.307a72.98 72.98 0 01-1.693.02l-2.046.004-191.868-.004z" fill="#F6F6F3"/><path d="M176.129 54.61h3.031V34.309h-3.031v20.3zm27.294-12.989l-3.473 8.802h-.104l-3.606-8.802h-3.264l5.406 12.302-3.082 6.843h3.162l8.331-19.145h-3.37zm-17.185 10.683c-.993 0-2.377-.496-2.377-1.724 0-1.567 1.725-2.168 3.212-2.168 1.333 0 1.959.288 2.769.68-.235 1.88-1.855 3.212-3.604 3.212zm.366-11.127c-2.194 0-4.466.967-5.406 3.109l2.689 1.123c.575-1.123 1.645-1.49 2.769-1.49 1.567 0 3.16.942 3.186 2.613v.209c-.549-.314-1.723-.784-3.16-.784-2.899 0-5.851 1.593-5.851 4.57 0 2.717 2.377 4.467 5.04 4.467 2.039 0 3.161-.914 3.867-1.984h.104v1.566h2.925v-7.783c0-3.604-2.69-5.616-6.163-5.616zm-18.728 2.916h-4.31v-6.959h4.31c2.266 0 3.552 1.876 3.552 3.48 0 1.573-1.286 3.479-3.552 3.479zm-.078-9.785h-7.26V54.61h3.028v-7.692h4.232c3.359 0 6.66-2.431 6.66-6.305 0-3.873-3.301-6.304-6.66-6.304zm-39.593 18c-2.094 0-3.846-1.753-3.846-4.16 0-2.433 1.752-4.212 3.846-4.212 2.067 0 3.689 1.779 3.689 4.212 0 2.407-1.622 4.16-3.689 4.16zm3.479-9.55h-.105c-.679-.81-1.988-1.543-3.636-1.543-3.454 0-6.619 3.035-6.619 6.933 0 3.872 3.165 6.88 6.619 6.88 1.648 0 2.957-.732 3.636-1.569h.105v.994c0 2.643-1.412 4.056-3.689 4.056-1.857 0-3.008-1.335-3.48-2.46l-2.642 1.099c.759 1.831 2.774 4.081 6.122 4.081 3.558 0 6.567-2.093 6.567-7.194V41.634h-2.878v1.124zm4.971 11.852h3.035V34.308h-3.035V54.61zm7.509-6.698c-.079-2.668 2.067-4.029 3.61-4.029 1.204 0 2.224.602 2.564 1.466l-6.174 2.563zm9.418-2.302c-.575-1.544-2.328-4.395-5.913-4.395-3.558 0-6.514 2.8-6.514 6.907 0 3.872 2.93 6.907 6.854 6.907 3.167 0 4.998-1.937 5.757-3.061l-2.355-1.57c-.784 1.151-1.858 1.91-3.402 1.91-1.543 0-2.642-.707-3.348-2.093l9.235-3.82-.314-.785zm-73.578-2.276v2.93h7.011c-.21 1.648-.758 2.852-1.596 3.69-1.02 1.02-2.616 2.145-5.415 2.145-4.317 0-7.692-3.48-7.692-7.797s3.375-7.797 7.692-7.797c2.328 0 4.028.916 5.284 2.094l2.067-2.067c-1.752-1.675-4.081-2.957-7.351-2.957-5.913 0-10.884 4.814-10.884 10.727S74.09 55.03 80.004 55.03c3.192 0 5.599-1.046 7.482-3.01 1.936-1.935 2.538-4.656 2.538-6.853a9.51 9.51 0 00-.157-1.832h-9.863zm17.991 8.974c-2.093 0-3.898-1.727-3.898-4.186 0-2.486 1.805-4.186 3.898-4.186s3.898 1.7 3.898 4.186c0 2.459-1.805 4.186-3.898 4.186zm0-11.093c-3.82 0-6.933 2.904-6.933 6.907 0 3.977 3.113 6.907 6.933 6.907s6.933-2.93 6.933-6.907c0-4.003-3.113-6.907-6.933-6.907zm15.125 11.093c-2.093 0-3.899-1.727-3.899-4.186 0-2.486 1.806-4.186 3.899-4.186 2.092 0 3.898 1.7 3.898 4.186 0 2.459-1.806 4.186-3.898 4.186zm0-11.093c-3.82 0-6.933 2.904-6.933 6.907 0 3.977 3.113 6.907 6.933 6.907 3.819 0 6.933-2.93 6.933-6.907 0-4.003-3.114-6.907-6.933-6.907zM71.306 24.927c.722.73 1.603 1.095 2.647 1.095 1.043 0 1.927-.365 2.647-1.095.721-.73 1.083-1.663 1.083-2.797 0-1.133-.362-2.067-1.083-2.797-.72-.73-1.604-1.095-2.647-1.095-1.044 0-1.925.365-2.647 1.095-.72.73-1.081 1.664-1.081 2.797 0 1.134.361 2.067 1.081 2.797zm6.22.816c-.958.985-2.15 1.477-3.573 1.477-1.424 0-2.615-.492-3.572-1.477-.957-.984-1.434-2.188-1.434-3.613 0-1.424.477-2.629 1.434-3.612.957-.986 2.148-1.478 3.572-1.478 1.416 0 2.604.495 3.567 1.484.96.989 1.441 2.191 1.441 3.606 0 1.425-.479 2.629-1.435 3.613z" fill="#000"/><path d="M71.306 24.927l-.115.114c.748.76 1.68 1.145 2.762 1.143 1.081.002 2.016-.384 2.762-1.143.753-.76 1.132-1.743 1.13-2.911.002-1.168-.377-2.151-1.13-2.911-.746-.76-1.68-1.145-2.762-1.143-1.081-.002-2.014.383-2.762 1.143-.751.76-1.13 1.743-1.129 2.911-.001 1.168.378 2.151 1.129 2.911l.115-.114.116-.114c-.69-.701-1.034-1.583-1.035-2.683.001-1.1.346-1.982 1.035-2.683.694-.7 1.525-1.044 2.53-1.046 1.007.002 1.839.345 2.532 1.046.69.701 1.035 1.583 1.036 2.683 0 1.1-.345 1.982-1.035 2.683-.694.7-1.526 1.044-2.532 1.046-1.006-.002-1.837-.345-2.531-1.046l-.116.114zm6.22.816l-.117-.113c-.93.954-2.069 1.425-3.456 1.427-1.387-.002-2.526-.473-3.455-1.427-.93-.958-1.388-2.112-1.389-3.5.001-1.388.46-2.543 1.39-3.5.928-.954 2.067-1.426 3.454-1.428 1.378.002 2.514.476 3.45 1.435.933.962 1.394 2.114 1.396 3.493-.002 1.388-.461 2.542-1.39 3.5l.117.113.116.113c.986-1.012 1.483-2.266 1.482-3.726.001-1.452-.498-2.704-1.488-3.72-.989-1.019-2.23-1.534-3.683-1.533-1.461-.001-2.704.512-3.688 1.527-.987 1.012-1.483 2.266-1.48 3.726-.003 1.46.493 2.714 1.48 3.726.984 1.015 2.227 1.527 3.688 1.526 1.462.001 2.705-.51 3.69-1.527l-.117-.112zm3.193 1.26v-9.744h1.524l4.735 7.58h.054l-.054-1.878V17.26h1.253v9.744h-1.306l-4.955-7.947h-.054l.054 1.878v6.069h-1.25z" fill="#000"/><path d="M80.719 27.003h.162V17.42h1.272L86.888 25h.311l-.058-2.042V17.42h.928v9.42h-1.055l-4.954-7.948h-.311l.059 2.043v5.904h-1.09v.163h.163-.162v.162h1.413V20.93l-.053-1.88-.163.004v.163h.054v-.163l-.138.087 5.002 8.023h1.56V17.097h-1.578v5.866l.054 1.88.162-.004v-.162h-.054v.162l.138-.086-4.783-7.656h-1.777v10.068h.163v-.162zm13.062 0H92.53v-8.547h-2.722V17.26h6.696v1.197H93.78v8.547z" fill="#000"/><path d="M93.782 27.003v-.163h-1.09v-8.546H89.97v-.873h6.371v.873H93.62v8.709h.162v-.163.163h.162v-8.385h2.722v-1.521h-7.02v1.521h2.72v8.547h1.579v-.162h-.162zm5.552-1.197h1.728c1.125 0 2.016-.322 2.674-.967.658-.644.986-1.547.986-2.708 0-1.152-.328-2.052-.986-2.702-.658-.647-1.549-.973-2.674-.973h-1.728v7.35zm-1.252 1.197v-9.744h2.98c1.497 0 2.695.451 3.594 1.355.897.902 1.346 2.074 1.346 3.517s-.449 2.615-1.346 3.518c-.899.903-2.097 1.354-3.594 1.354h-2.98z" fill="#000"/><path d="M99.334 25.806v.162h1.729c1.154.001 2.096-.334 2.787-1.013.695-.68 1.036-1.634 1.035-2.824.001-1.181-.34-2.134-1.034-2.817-.692-.683-1.634-1.022-2.788-1.02h-1.891v7.674h.162v-.162h.162v-7.188h1.567c1.094.002 1.935.314 2.56.927.622.615.936 1.463.937 2.586-.001 1.132-.316 1.983-.937 2.592-.624.61-1.466.918-2.56.92h-1.729v.163h.162-.162zm-1.251 1.197h.162V17.42h2.818c1.466.002 2.611.437 3.478 1.307.866.872 1.298 1.993 1.3 3.403-.002 1.41-.434 2.53-1.3 3.402-.867.87-2.012 1.306-3.478 1.307h-2.98v.163h.162-.162v.162h2.98c1.528.001 2.777-.465 3.709-1.402.93-.933 1.395-2.157 1.393-3.632.002-1.476-.463-2.7-1.393-3.632-.932-.938-2.181-1.404-3.709-1.402h-3.142v10.068h.162v-.162zm15.362-8.547h-4.437v3.09h4.002v1.17h-4.002v3.09h4.437v1.197h-5.688v-9.744h5.688v1.197z" fill="#000"/><path d="M113.446 18.456v-.162h-4.601v3.414h4.003v.846h-4.003v3.414h4.438v.872h-5.364v-9.419h5.364v1.035h.163v-.162.162h.162v-1.359h-6.014v10.068h6.014v-1.522h-4.438V22.88h4.002v-1.496h-4.002v-2.765h4.438v-.162h-.162zm9.173-1.196v.053l-3.621 4.178 3.865 5.458v.054h-1.537l-3.171-4.545-1.497 1.728v2.817h-1.252v-9.744h1.252v5.021h.055L121 17.26h1.619z" fill="#000"/><path d="M122.619 17.259h-.163v.054h.163l-.123-.107-3.704 4.276L122.7 27v.003h.163v-.163h-1.452l-3.243-4.646-1.673 1.931v2.715h-.927v-9.419h.927v5.021h.292l4.287-5.02h1.545v-.163h-.163.163v-.162h-1.694l-4.335 5.078.122.105v-.163h-.055v.163h.163v-5.183h-1.577v10.068h1.577v-2.919l1.32-1.524 3.101 4.443h1.784v-.268l-3.821-5.395 3.577-4.129v-.276h-.162v.162zm4.789 9.744v-9.744h1.251v4.177h4.872V17.26h1.253v9.744h-1.253v-4.396h-4.872v4.396h-1.251z" fill="#000"/><path d="M127.409 27.003h.162V17.42h.926v4.18h5.197v-4.18h.928v9.42h-.928v-4.397h-5.197v4.396h-1.088v.163h.162-.162v.162h1.413V22.77h4.547v4.396h1.578V17.097h-1.578v4.177h-4.547v-4.177h-1.576v10.068h.163v-.162zm15.297-8.547h-4.437v3.09h4.001v1.17h-4.001v3.09h4.437v1.197h-5.689v-9.744h5.689v1.197z" fill="#000"/><path d="M142.706 18.456v-.162h-4.599v3.414h4v.845h-4v3.415h4.437v.872h-5.364v-9.419h5.364v1.035h.162v-.162.162h.163v-1.359h-6.014v10.068h6.014v-1.522h-4.438V22.88h4.001v-1.496h-4.001v-2.765h4.438v-.162h-.163zm5.28 8.547h-1.252v-8.547h-2.721V17.26h6.695v1.197h-2.722v8.547z" fill="#000"/><path d="M147.986 27.003v-.163h-1.09v-8.546h-2.721v-.873h6.37v.873h-2.721v8.709h.162v-.163.163h.163v-8.385h2.721v-1.521h-7.02v1.521h2.722v8.547h1.577v-.162h-.163zm9.179-2.076c.721.73 1.603 1.095 2.647 1.095 1.042 0 1.926-.365 2.647-1.095.721-.73 1.083-1.663 1.083-2.797 0-1.133-.362-2.067-1.083-2.797s-1.605-1.095-2.647-1.095c-1.044 0-1.926.365-2.647 1.095-.721.73-1.082 1.664-1.082 2.797 0 1.134.361 2.067 1.082 2.797zm6.22.816c-.959.985-2.149 1.477-3.573 1.477s-2.616-.492-3.573-1.477c-.956-.984-1.434-2.188-1.434-3.613 0-1.424.478-2.629 1.434-3.612.957-.986 2.149-1.478 3.573-1.478 1.416 0 2.603.495 3.566 1.484.961.989 1.442 2.191 1.442 3.606 0 1.425-.479 2.629-1.435 3.613z" fill="#000"/><path d="M157.165 24.927l-.115.114c.747.76 1.68 1.145 2.762 1.143 1.081.002 2.015-.384 2.762-1.143.752-.76 1.132-1.743 1.13-2.911.002-1.168-.378-2.151-1.13-2.911-.747-.76-1.681-1.145-2.762-1.143-1.082-.002-2.015.383-2.762 1.143-.752.76-1.131 1.743-1.129 2.911-.002 1.168.377 2.151 1.129 2.911l.115-.114.115-.114c-.688-.701-1.033-1.583-1.034-2.683.001-1.1.346-1.982 1.034-2.683.695-.7 1.525-1.044 2.532-1.046 1.005.002 1.837.345 2.53 1.046l.006.005-.006-.005c.692.701 1.036 1.583 1.038 2.683-.002 1.1-.346 1.982-1.038 2.683-.693.7-1.525 1.044-2.53 1.046-1.007-.002-1.837-.345-2.532-1.046l-.115.114zm6.22.816l-.117-.113c-.931.954-2.069 1.425-3.456 1.427-1.387-.002-2.527-.473-3.456-1.427-.929-.958-1.387-2.112-1.388-3.5.001-1.388.459-2.543 1.388-3.5.929-.954 2.069-1.426 3.456-1.428 1.379.002 2.514.476 3.449 1.435.934.962 1.395 2.114 1.397 3.493-.002 1.388-.463 2.542-1.39 3.5l.117.113.116.113c.985-1.012 1.483-2.266 1.482-3.726.001-1.452-.499-2.704-1.488-3.72-.991-1.019-2.23-1.534-3.683-1.533-1.462-.001-2.706.512-3.688 1.527-.987 1.012-1.483 2.266-1.481 3.726-.002 1.46.494 2.714 1.481 3.726.982 1.015 2.226 1.527 3.688 1.526 1.461.001 2.704-.51 3.689-1.527l-.116-.112zm4.441-3.885h2.096c.527 0 .949-.176 1.267-.53.317-.354.476-.743.476-1.17 0-.426-.159-.817-.476-1.17-.318-.355-.74-.532-1.267-.532h-2.096v3.402zm0 5.145h-1.251v-9.744h3.321c.824 0 1.54.274 2.142.823.605.549.907 1.241.907 2.076 0 .834-.302 1.526-.907 2.075a3.075 3.075 0 01-2.142.824h-2.07v3.946z" fill="#000"/><path d="M167.826 21.858v.162h2.097c.561.002 1.041-.194 1.386-.583.34-.378.519-.812.519-1.279 0-.468-.179-.902-.519-1.279-.345-.39-.825-.587-1.386-.585h-2.259v3.726h.162v-.162h.162v-3.24h1.935c.492.003.857.159 1.144.478.296.33.434.676.436 1.062-.002.386-.14.73-.436 1.062-.287.318-.652.474-1.144.476h-2.097v.162h.162-.162zm0 5.145v-.163h-1.088v-9.419h3.159a2.918 2.918 0 012.033.781c.571.522.849 1.16.852 1.956-.003.795-.281 1.432-.852 1.954a2.917 2.917 0 01-2.033.782h-2.233v4.109h.162v-.163.163h.162v-3.784h1.909a3.235 3.235 0 002.25-.867c.637-.575.962-1.32.96-2.194.002-.874-.323-1.62-.96-2.196a3.236 3.236 0 00-2.25-.865h-3.484v10.068h1.575v-.162h-.162z" fill="#000"/><path d="M35.742 37.272l-17.289 18.35.003.011a4.668 4.668 0 004.51 3.46c.863 0 1.674-.234 2.37-.643l.055-.033 19.46-11.23-9.109-9.915z" fill="#EB3131"/><path d="M53.233 34.148l-.016-.011-8.402-4.87-9.466 8.422 9.499 9.498 8.358-4.823a4.672 4.672 0 00.027-8.216z" fill="#F6B60B"/><path d="M18.452 20.794a4.579 4.579 0 00-.158 1.202V54.42c0 .416.054.82.159 1.201l17.884-17.88-17.885-16.948z" fill="#5778C5"/><path d="M35.87 38.208l8.949-8.946-19.44-11.27a4.68 4.68 0 00-2.413-.668 4.673 4.673 0 00-4.513 3.465v.005L35.87 38.208z" fill="#3BAD49"/></svg>