<svg width="64" height="101" fill="none" xmlns="http://www.w3.org/2000/svg"><path d="M32 81c16.569 0 30-13.431 30-30 0-16.569-13.431-30-30-30C15.431 21 2 34.431 2 51c0 16.569 13.431 30 30 30z" fill="#EEE" stroke="#000" stroke-width="2"/><path d="M32.102 40l3.897 11h-8l4.103-11z" fill="#000"/><path d="M29.44 52l2.638 7.074L34.584 52H29.44z" stroke="#000" stroke-width="2"/><path d="M27.39 12.008C26.13 10.68 25.5 9.01 25.5 7s.63-3.68 1.89-5.008C28.652.664 30.21 0 32.067 0c2.153 0 3.86.79 5.12 2.37.544.7.938 1.48 1.183 2.342h-2.101a4.291 4.291 0 00-.867-1.347c-.84-.897-1.952-1.346-3.335-1.346-1.279 0-2.347.467-3.204 1.4C28.022 4.353 27.6 5.546 27.6 7c0 1.454.438 2.647 1.313 3.58.876.934 1.926 1.4 3.152 1.4 1.435 0 2.582-.493 3.44-1.48.385-.413.683-.906.893-1.48H38.5a6.754 6.754 0 01-1.208 2.503C35.962 13.174 34.219 14 32.066 14c-1.856 0-3.415-.664-4.675-1.992zM23.5 100.75v-12.5h2.06v5.25h2.061c.31-1.65 1.04-2.975 2.19-3.975C30.978 88.508 32.395 88 34.06 88c1.82 0 3.348.617 4.584 1.85 1.237 1.233 1.855 2.783 1.855 4.65 0 1.867-.618 3.417-1.855 4.65-1.236 1.233-2.764 1.85-4.584 1.85-1.649 0-3.074-.525-4.276-1.575-1.202-1.067-1.923-2.417-2.164-4.05h-2.06v5.375H23.5zm7.418-9.575c-.824.867-1.236 1.975-1.236 3.325s.412 2.458 1.236 3.325c.842.867 1.89 1.3 3.143 1.3s2.292-.433 3.116-1.3c.842-.867 1.262-1.975 1.262-3.325s-.42-2.458-1.262-3.325c-.824-.867-1.863-1.3-3.116-1.3-1.254 0-2.301.433-3.143 1.3z" fill="#000"/></svg>