<svg width="114" height="114" fill="none" xmlns="http://www.w3.org/2000/svg"><path fill="#000" d="M.5.5h113v113H.5z"/><path stroke="#000" d="M.5.5h113v113H.5z"/><path fill-rule="evenodd" clip-rule="evenodd" d="M66.511 35.922c2.754 0 4.989-2.223 4.989-4.961 0-2.739-2.244-4.961-4.989-4.961-2.745 0-4.98 2.222-4.98 4.96 0 2.74 2.226 4.962 4.98 4.962zm19.462 24.047H86l-.027-.018v.018zm-9.65 1.857c2.398-1.035 5.131-1.853 9.65-1.857v6.334c-4.38 0-6.467.965-8.916 2.13-2.584 1.228-5.813 2.757-11.772 3.385a33.577 33.577 0 01-3.528.182c-5.442 0-10.167-1.292-14.765-2.557-5.959-1.638-11.637-3.185-18.992-2.12v-6.389c8.262-1.001 14.792.774 20.66 2.384l.003.001c5.232 1.438 10.165 2.793 15.969 2.183 4.607-.482 6.956-1.501 9.296-2.602a25.741 25.741 0 01-6.04 1.638 26.896 26.896 0 01-3.791.282c-5.913 0-10.076-2.157-14.121-4.259l-.005-.002c-5.358-2.775-10.89-5.64-21.971-4.621v-6.361c12.57-1.02 19.355 2.484 24.878 5.35 4.526 2.349 8.09 4.196 14.112 3.332a19.601 19.601 0 004.744-1.302 14.99 14.99 0 01-3.538.41c-.263 0-.535-.01-.807-.018-6.194-.255-9.958-3.595-13.595-6.826-5.306-4.714-10.793-9.582-25.785-8.3v-6.37c17.314-1.328 24.307 4.87 29.984 9.91l.008.008c3.315 2.945 5.71 5.071 9.66 5.235 4.517.173 5.696-1.547 8.426-6.58 2.031-3.75 4.544-8.372 9.913-12.112v8.472c-1.905 2.166-3.165 4.477-4.353 6.68-1.053 1.947-2.168 3.986-3.692 5.715 1.098-.874 2.132-1.784 3.12-2.658 1.633-1.438 3.229-2.839 4.916-3.886v8.009c-.245.209-.49.427-.734.646-2.34 2.066-5.216 4.596-8.934 6.534z" fill="#F9F9F9"/><path d="M23.34 94.848c-.28-.327-.593-.686-.938-1.078-.336-.401-.677-.803-1.022-1.204-.336-.41-.667-.812-.994-1.204a165.17 165.17 0 01-.854-1.064h1.582l.728.924c.29.355.593.728.91 1.12.327.383.653.775.98 1.176.336.392.653.76.952 1.106v-4.326h1.302v4.326c.29-.345.597-.714.924-1.106.336-.401.663-.798.98-1.19l.924-1.106c.29-.355.537-.663.742-.924h1.568c-.252.317-.541.672-.868 1.064a134.872 134.872 0 01-2.002 2.394l-.924 1.078c.373.336.747.714 1.12 1.134.373.41.733.84 1.078 1.288a19.62 19.62 0 011.82 2.744h-1.54c-.252-.43-.537-.859-.854-1.288a22.52 22.52 0 00-.98-1.26c-.336-.41-.677-.793-1.022-1.148a14.807 14.807 0 00-.966-.938V100h-1.302v-4.634a17.826 17.826 0 00-2.002 2.086 22.52 22.52 0 00-.98 1.26c-.308.43-.588.859-.84 1.288h-1.526c.233-.448.504-.905.812-1.372.308-.467.635-.924.98-1.372.355-.448.719-.877 1.092-1.288.383-.41.756-.784 1.12-1.12zm16.44-4.55c-.29.317-.616.672-.98 1.064a142.728 142.728 0 01-3.43 3.472c.401.28.826.625 1.274 1.036a21.866 21.866 0 012.52 2.744c.383.485.7.947.952 1.386H38.52c-.28-.439-.602-.877-.966-1.316a15.035 15.035 0 00-1.162-1.274c-.402-.41-.812-.789-1.232-1.134-.41-.345-.812-.64-1.204-.882V100h-1.358v-9.702h1.358v4.284c.326-.308.686-.653 1.078-1.036a136.256 136.256 0 002.24-2.296c.345-.364.634-.681.868-.952h1.638zm3.519 4.858l2.184-3.094.91.49-1.554 2.604 1.554 2.604-.91.49-2.184-3.094zm2.912 0l2.184-3.094.91.49-1.554 2.604 1.554 2.604-.91.49-2.184-3.094zm8.932 3.5a27.29 27.29 0 00-.378-.854c-.15-.345-.313-.719-.49-1.12a35.399 35.399 0 00-.574-1.232c-.196-.43-.383-.83-.56-1.204a21.27 21.27 0 00-.504-1.022c-.15-.299-.27-.527-.364-.686a85.253 85.253 0 00-.252 3.584 251.188 251.188 0 00-.168 3.878h-1.33a240.37 240.37 0 01.28-5.054c.065-.83.13-1.638.196-2.422.075-.784.154-1.526.238-2.226h1.19c.252.41.523.896.812 1.456.29.56.579 1.148.868 1.764.29.607.57 1.218.84 1.834l.742 1.666c.224-.504.471-1.06.742-1.666.27-.616.55-1.227.84-1.834.29-.616.579-1.204.868-1.764.29-.56.56-1.045.812-1.456h1.19c.317 3.127.555 6.36.714 9.702h-1.33c-.047-1.307-.103-2.6-.168-3.878a85.592 85.592 0 00-.252-3.584c-.093.159-.22.387-.378.686-.15.299-.313.64-.49 1.022l-.574 1.204c-.196.42-.383.83-.56 1.232-.177.401-.345.775-.504 1.12-.15.345-.27.63-.364.854h-1.092zM69.186 100c-.158-.42-.308-.83-.448-1.232-.14-.41-.284-.826-.434-1.246h-4.396L63.026 100h-1.414a270.635 270.635 0 012.002-5.334c.318-.784.63-1.53.938-2.24.308-.719.63-1.428.966-2.128h1.246a68.68 68.68 0 011.89 4.368c.318.784.64 1.615.966 2.492.327.868.677 1.815 1.05 2.842h-1.484zm-1.274-3.598c-.298-.812-.597-1.596-.896-2.352a37.099 37.099 0 00-.91-2.198c-.326.7-.639 1.433-.938 2.198-.289.756-.578 1.54-.868 2.352h3.612zm7.78-5.012a6.05 6.05 0 00-1.022.084 2.717 2.717 0 00-.854.294c-.252.14-.452.331-.602.574-.149.243-.224.546-.224.91 0 .69.22 1.171.658 1.442.448.261 1.116.392 2.002.392h1.4v-3.654c-.102 0-.224-.005-.364-.014a5.784 5.784 0 00-.434-.014 9.724 9.724 0 00-.56-.014zm.112-1.19a15.242 15.242 0 011.302.056c.234.019.462.042.686.07.224.028.43.065.616.112V100H77.05v-3.794h-1.582a12.6 12.6 0 01-.574-.056c-.168.224-.35.485-.546.784a21.46 21.46 0 00-.588.952 35.28 35.28 0 00-.588 1.05c-.186.364-.359.719-.518 1.064h-1.428c.15-.364.327-.742.532-1.134.206-.392.416-.765.63-1.12.224-.355.434-.681.63-.98.206-.308.383-.56.532-.756a3.975 3.975 0 01-.672-.28 2.326 2.326 0 01-.644-.504 2.69 2.69 0 01-.49-.798c-.121-.327-.182-.714-.182-1.162 0-.504.098-.947.294-1.33.196-.383.476-.7.84-.952a4.024 4.024 0 011.344-.588 7.286 7.286 0 011.764-.196zm11.911.098c-.29.317-.616.672-.98 1.064a123.028 123.028 0 01-2.324 2.38c-.392.392-.76.756-1.106 1.092.401.28.826.625 1.274 1.036a21.895 21.895 0 012.52 2.744c.383.485.7.947.952 1.386h-1.596c-.28-.439-.602-.877-.966-1.316a15.052 15.052 0 00-1.162-1.274c-.401-.41-.812-.789-1.232-1.134-.41-.345-.812-.64-1.204-.882V100h-1.358v-9.702h1.358v4.284a82.26 82.26 0 001.078-1.036 137.721 137.721 0 002.24-2.296c.345-.364.635-.681.868-.952h1.638zm1.472 7.952l-.91-.49 1.554-2.604-1.554-2.604.91-.49 2.184 3.094-2.184 3.094zm2.912 0l-.91-.49 1.554-2.604-1.554-2.604.91-.49 2.184 3.094-2.184 3.094z" fill="#F9F9F9"/></svg>