<svg width="114" height="114" fill="none" xmlns="http://www.w3.org/2000/svg"><path fill="#000" d="M.5.5h113v113H.5z"/><path stroke="#000" d="M.5.5h113v113H.5z"/><path fill-rule="evenodd" clip-rule="evenodd" d="M66.511 35.922c2.754 0 4.989-2.223 4.989-4.961 0-2.739-2.244-4.961-4.989-4.961-2.745 0-4.98 2.222-4.98 4.96 0 2.74 2.226 4.962 4.98 4.962zm19.462 24.047H86l-.027-.018v.018zm-9.65 1.857c2.398-1.035 5.131-1.853 9.65-1.857v6.334c-4.38 0-6.467.965-8.916 2.13-2.584 1.228-5.813 2.757-11.772 3.385a33.577 33.577 0 01-3.528.182c-5.442 0-10.167-1.292-14.765-2.557-5.959-1.638-11.637-3.185-18.992-2.12v-6.389c8.262-1 14.792.774 20.66 2.384l.003.001c5.232 1.438 10.165 2.793 15.969 2.183 4.607-.482 6.956-1.501 9.296-2.602a25.741 25.741 0 01-6.04 1.638 26.896 26.896 0 01-3.791.282c-5.913 0-10.076-2.157-14.121-4.259l-.005-.002c-5.358-2.775-10.89-5.64-21.971-4.621v-6.361c12.57-1.02 19.355 2.484 24.878 5.35 4.526 2.349 8.09 4.196 14.112 3.332a19.601 19.601 0 004.744-1.302 14.99 14.99 0 01-3.538.41c-.263 0-.535-.01-.807-.018-6.194-.255-9.958-3.595-13.595-6.826-5.306-4.714-10.793-9.582-25.785-8.3v-6.37c17.314-1.328 24.307 4.87 29.984 9.91l.008.008c3.315 2.945 5.71 5.071 9.66 5.235 4.517.173 5.696-1.547 8.426-6.58 2.031-3.75 4.544-8.372 9.913-12.112v8.472c-1.905 2.166-3.165 4.477-4.353 6.68-1.053 1.947-2.168 3.986-3.692 5.715 1.098-.874 2.132-1.784 3.12-2.658 1.633-1.438 3.229-2.839 4.916-3.885v8.008c-.245.21-.49.428-.735.646-2.34 2.066-5.215 4.596-8.933 6.534z" fill="#F9F9F9"/><path d="M11.812 95.142c0-.83.121-1.563.364-2.198.252-.635.588-1.162 1.008-1.582a4.21 4.21 0 011.484-.966 5.075 5.075 0 011.806-.322 4.81 4.81 0 011.764.322c.56.215 1.05.537 1.47.966.42.42.751.947.994 1.582.252.635.378 1.367.378 2.198 0 .83-.126 1.563-.378 2.198-.243.635-.574 1.167-.994 1.596-.42.42-.91.737-1.47.952a4.807 4.807 0 01-1.764.322 5.068 5.068 0 01-1.806-.322 4.303 4.303 0 01-1.484-.952 4.765 4.765 0 01-1.008-1.596c-.243-.635-.364-1.367-.364-2.198zm1.428 0c0 .588.075 1.125.224 1.61.15.476.36.882.63 1.218.28.336.616.597 1.008.784.401.177.85.266 1.344.266.495 0 .938-.089 1.33-.266a2.82 2.82 0 00.994-.784c.28-.336.495-.742.644-1.218.15-.485.224-1.022.224-1.61a5.32 5.32 0 00-.224-1.596 3.512 3.512 0 00-.644-1.232 2.676 2.676 0 00-.994-.77 3.055 3.055 0 00-1.33-.28c-.495 0-.943.093-1.344.28a2.8 2.8 0 00-1.008.77 3.68 3.68 0 00-.63 1.232 5.32 5.32 0 00-.224 1.596zm14.635-2.422v1.092h-2.366V100h-1.303v-6.188H21.84V92.72h6.035zm-.326 6.216h.784a6.4 6.4 0 00.728-1.386 8.12 8.12 0 00.42-1.47c.093-.513.154-1.045.182-1.596.028-.56.046-1.148.056-1.764h4.774v6.216h.98v3.094H34.24V100h-5.46v2.03h-1.232v-3.094zm5.642 0v-5.124h-2.282c-.01.439-.033.882-.07 1.33a12.92 12.92 0 01-.182 1.316c-.084.43-.206.854-.364 1.274-.15.41-.34.812-.574 1.204h3.472zm3.003-2.562c0-.644.094-1.204.28-1.68.187-.485.434-.887.742-1.204a3.014 3.014 0 011.064-.714 3.323 3.323 0 011.232-.238c.98 0 1.732.308 2.254.924.523.607.784 1.535.784 2.786v.224c0 .084-.004.163-.014.238h-4.984c.056.756.276 1.33.658 1.722.383.392.98.588 1.792.588.458 0 .84-.037 1.148-.112a4.47 4.47 0 00.714-.238l.182 1.092c-.158.084-.438.173-.84.266-.392.093-.84.14-1.344.14-.634 0-1.185-.093-1.652-.28a3.151 3.151 0 01-1.134-.798 3.316 3.316 0 01-.672-1.19 5.29 5.29 0 01-.21-1.526zm4.998-.714c.01-.588-.14-1.069-.448-1.442-.298-.383-.714-.574-1.246-.574a1.7 1.7 0 00-.798.182 1.802 1.802 0 00-.574.448 2.209 2.209 0 00-.378.644c-.084.243-.14.49-.168.742h3.612zm5.483-1.848c0 .308-.01.64-.028.994a13.161 13.161 0 01-.224 2.086 7.08 7.08 0 01-.252.952 4.31 4.31 0 01-.392.84c-.15.261-.336.495-.56.7a3.323 3.323 0 01-.784.504 3.38 3.38 0 01-1.05.252l-.182-1.092c.457-.093.816-.266 1.078-.518.27-.252.485-.56.644-.924.14-.317.242-.677.308-1.078.065-.401.112-.817.14-1.246.028-.439.042-.877.042-1.316.009-.439.014-.854.014-1.246h4.844V100H48.97v-6.188h-2.296zM61.04 100h-1.302v-6.188H56.49V100h-1.302v-7.28h5.852V100zm7.016-3.626c0-.85-.21-1.503-.63-1.96-.42-.457-.98-.686-1.68-.686-.392 0-.7.014-.924.042-.215.028-.388.06-.518.098v4.592c.159.13.387.257.686.378.299.121.625.182.98.182.373 0 .69-.065.952-.196.27-.14.49-.327.658-.56.168-.243.29-.523.364-.84a4.69 4.69 0 00.112-1.05zm1.358 0c0 .55-.075 1.06-.224 1.526-.14.467-.35.868-.63 1.204a2.88 2.88 0 01-1.036.784c-.401.187-.864.28-1.386.28-.42 0-.794-.056-1.12-.168a3.543 3.543 0 01-.714-.322v2.912h-1.302v-9.646c.308-.075.69-.154 1.148-.238a8.274 8.274 0 011.61-.14c.56 0 1.064.089 1.512.266.448.177.83.43 1.148.756.317.327.56.728.728 1.204.177.467.266.994.266 1.582zm7.978-.014c0 .579-.084 1.101-.252 1.568a3.525 3.525 0 01-.714 1.204 3.118 3.118 0 01-1.078.784c-.42.177-.877.266-1.372.266-.495 0-.952-.089-1.372-.266a3.263 3.263 0 01-1.092-.784 3.651 3.651 0 01-.7-1.204 4.605 4.605 0 01-.252-1.568c0-.57.084-1.087.252-1.554a3.62 3.62 0 01.7-1.218 3.1 3.1 0 011.092-.77 3.34 3.34 0 011.372-.28c.495 0 .952.093 1.372.28.42.177.78.434 1.078.77.308.336.546.742.714 1.218.168.467.252.985.252 1.554zm-1.358 0c0-.821-.187-1.47-.56-1.946-.364-.485-.863-.728-1.498-.728s-1.139.243-1.512.728c-.364.476-.546 1.125-.546 1.946s.182 1.475.546 1.96c.373.476.877.714 1.512.714s1.134-.238 1.498-.714c.373-.485.56-1.139.56-1.96zm2.014 2.576h.784a6.4 6.4 0 00.728-1.386 8.12 8.12 0 00.42-1.47c.093-.513.154-1.045.182-1.596.028-.56.046-1.148.056-1.764h4.774v6.216h.98v3.094H84.74V100h-5.46v2.03h-1.232v-3.094zm5.642 0v-5.124h-2.282c-.01.439-.033.882-.07 1.33a12.92 12.92 0 01-.182 1.316c-.084.43-.206.854-.364 1.274-.15.41-.34.812-.574 1.204h3.472zm5.873.126c.308 0 .579-.005.812-.014.243-.019.444-.047.602-.084v-2.17c-.093-.047-.247-.084-.462-.112a4.318 4.318 0 00-.756-.056c-.196 0-.406.014-.63.042a1.88 1.88 0 00-.602.182 1.208 1.208 0 00-.448.364c-.121.15-.182.35-.182.602 0 .467.15.793.448.98.299.177.705.266 1.218.266zm-.112-6.524c.523 0 .962.07 1.316.21.364.13.654.322.868.574.224.243.383.537.476.882.094.336.14.71.14 1.12v4.55l-.476.084a17.713 17.713 0 01-1.498.154 8.99 8.99 0 01-.868.042c-.41 0-.788-.042-1.134-.126a2.614 2.614 0 01-.896-.392 1.883 1.883 0 01-.588-.728c-.14-.299-.21-.658-.21-1.078 0-.401.08-.747.238-1.036.168-.29.392-.523.672-.7a3.08 3.08 0 01.98-.392 5.343 5.343 0 011.176-.126c.131 0 .266.01.406.028.14.01.271.028.392.056a6.25 6.25 0 01.532.098v-.364a2.81 2.81 0 00-.07-.63 1.397 1.397 0 00-.252-.56 1.189 1.189 0 00-.504-.392c-.205-.103-.476-.154-.812-.154-.429 0-.807.033-1.134.098a3.676 3.676 0 00-.714.182l-.154-1.078c.168-.075.448-.145.84-.21a6.81 6.81 0 011.274-.112zm13.657.182c-.187.233-.397.49-.63.77-.234.27-.476.555-.728.854-.252.29-.509.579-.77.868-.252.29-.495.565-.728.826.28.27.569.565.868.882.298.317.588.649.868.994.289.336.564.686.826 1.05.261.355.49.7.686 1.036h-1.456c-.196-.308-.425-.63-.686-.966a13.767 13.767 0 00-.798-.994 12.602 12.602 0 00-.826-.882 6.78 6.78 0 00-.756-.686V100h-1.246v-3.528c-.234.177-.49.406-.77.686-.27.27-.546.565-.826.882-.27.317-.537.649-.798.994-.252.336-.476.658-.672.966h-1.442c.196-.336.42-.681.672-1.036a22.07 22.07 0 011.694-2.03c.298-.317.588-.611.868-.882-.234-.261-.48-.537-.742-.826l-.756-.868c-.252-.299-.495-.583-.728-.854-.234-.28-.448-.541-.644-.784h1.442c.336.42.723.887 1.162 1.4.438.513.952 1.106 1.54 1.778V92.72h1.246v3.178c.588-.672 1.101-1.265 1.54-1.778.438-.513.826-.98 1.162-1.4h1.428z" fill="#F9F9F9"/></svg>