<svg width="108" height="108" fill="none" xmlns="http://www.w3.org/2000/svg"><path fill="#000" d="M1.333 1.333h105.333v105.333H1.333z"/><path stroke="#000" stroke-width="1.333" d="M1.333 1.333h105.333v105.333H1.333z"/><path fill-rule="evenodd" clip-rule="evenodd" d="M63.673 41.085a4.88 4.88 0 004.88-4.876 4.886 4.886 0 00-4.88-4.876A4.878 4.878 0 0058.8 36.21a4.872 4.872 0 004.872 4.876zM82.71 64.721h.026l-.026-.018v.018zm-9.44 1.825c2.346-1.018 5.02-1.822 9.44-1.825v6.226c-4.285 0-6.326.948-8.721 2.093-2.53 1.207-5.688 2.71-11.517 3.327a32.67 32.67 0 01-3.45.179c-5.324 0-9.947-1.27-14.445-2.514-5.829-1.61-11.383-3.13-18.578-2.084V65.67c8.083-.983 14.47.76 20.21 2.344h.003c5.118 1.413 9.944 2.746 15.622 2.147 4.507-.474 6.805-1.476 9.094-2.559a25.089 25.089 0 01-5.91 1.61 26.178 26.178 0 01-3.708.278c-5.785 0-9.857-2.12-13.814-4.186l-.004-.002C42.251 62.572 36.84 59.757 26 60.758v-6.252c12.297-1.002 18.933 2.442 24.336 5.259 4.428 2.308 7.914 4.123 13.805 3.274a19.105 19.105 0 004.64-1.28 14.6 14.6 0 01-3.46.403c-.257 0-.523-.009-.79-.018-6.059-.25-9.74-3.533-13.299-6.708-5.19-4.633-10.557-9.419-25.223-8.157v-6.262c16.937-1.306 23.777 4.786 29.331 9.74l.008.008c3.243 2.894 5.585 4.984 9.45 5.145 4.418.17 5.572-1.52 8.242-6.467 1.987-3.685 4.445-8.229 9.697-11.905v8.327c-1.863 2.13-3.096 4.401-4.258 6.566-1.03 1.914-2.12 3.917-3.611 5.617 1.073-.859 2.085-1.753 3.052-2.612 1.597-1.413 3.158-2.79 4.808-3.82v7.872c-.239.206-.479.42-.718.635-2.29 2.03-5.102 4.517-8.74 6.422z" fill="#F9F9F9"/></svg>