<svg width="69" height="87" fill="none" xmlns="http://www.w3.org/2000/svg"><path d="M37 75c16.569 0 30-13.431 30-30 0-16.569-13.431-30-30-30C20.431 15 7 28.431 7 45c0 16.569 13.431 30 30 30z" fill="#EEE" stroke="#000" stroke-width="2"/><path d="M42.59 35.525L40.463 47l-6.928-4 9.053-7.475z" fill="#000"/><path d="M34.283 44.586l-1.252 7.446 5.708-4.873-4.456-2.573z" stroke="#000" stroke-width="2"/><path d="M56.89 12.008C55.63 10.68 55 9.01 55 7s.63-3.68 1.89-5.008C58.152.664 59.71 0 61.567 0c2.153 0 3.86.79 5.12 2.37.544.7.938 1.48 1.183 2.342h-2.101a4.291 4.291 0 00-.867-1.347c-.84-.897-1.952-1.346-3.335-1.346-1.279 0-2.347.467-3.204 1.4C57.522 4.353 57.1 5.546 57.1 7c0 1.454.438 2.647 1.313 3.58.876.934 1.926 1.4 3.152 1.4 1.435 0 2.582-.493 3.44-1.48.385-.413.683-.906.893-1.48H68a6.754 6.754 0 01-1.208 2.503C65.462 13.174 63.719 14 61.566 14c-1.856 0-3.415-.664-4.675-1.992zM0 86.75v-12.5h2.06v5.25h2.061c.31-1.65 1.04-2.975 2.19-3.975C7.478 74.508 8.895 74 10.56 74c1.82 0 3.348.617 4.585 1.85C16.381 77.083 17 78.633 17 80.5c0 1.867-.618 3.417-1.854 4.65C13.909 86.383 12.38 87 10.56 87c-1.649 0-3.074-.525-4.276-1.575-1.202-1.067-1.923-2.417-2.164-4.05H2.06v5.375H0zm7.418-9.575c-.824.867-1.236 1.975-1.236 3.325s.412 2.458 1.236 3.325c.842.867 1.89 1.3 3.143 1.3s2.292-.433 3.116-1.3c.842-.867 1.262-1.975 1.262-3.325s-.42-2.458-1.262-3.325c-.824-.867-1.863-1.3-3.116-1.3-1.254 0-2.301.433-3.143 1.3z" fill="#000"/></svg>