<svg width="269" height="44" fill="none" xmlns="http://www.w3.org/2000/svg"><path fill-rule="evenodd" clip-rule="evenodd" d="M37.182 9.49C39.843 9.49 42 7.365 42 4.745S39.833 0 37.182 0c-2.65 0-4.808 2.126-4.808 4.745 0 2.62 2.15 4.745 4.808 4.745zm18.792 23.002H56l-.026-.017v.017zm-9.317 1.776c2.315-.99 4.954-1.773 9.317-1.776v6.059c-4.23 0-6.244.922-8.608 2.036-2.496 1.176-5.613 2.638-11.367 3.239a32.71 32.71 0 01-3.406.174c-5.254 0-9.817-1.236-14.256-2.446C12.584 39.987 7.102 38.507 0 39.525v-6.11c7.977-.958 14.282.74 19.948 2.28l.002.001c5.052 1.375 9.815 2.672 15.419 2.089 4.448-.462 6.716-1.437 8.976-2.49a25.037 25.037 0 01-5.832 1.567c-1.296.183-2.514.27-3.66.27-5.71 0-9.73-2.063-13.635-4.074l-.004-.002C16.04 30.402 10.698 27.66 0 28.636v-6.084c12.137-.975 18.687 2.376 24.02 5.118 4.37 2.246 7.811 4.013 13.626 3.186a19.065 19.065 0 004.58-1.245 14.605 14.605 0 01-3.416.392c-.254 0-.516-.009-.779-.018-5.981-.244-9.615-3.438-13.127-6.528-5.122-4.51-10.42-9.166-24.895-7.939V9.425c16.717-1.27 23.468 4.657 28.95 9.48l.008.006c3.2 2.817 5.512 4.85 9.327 5.007 4.36.166 5.499-1.48 8.135-6.293C48.39 14.038 50.816 9.617 56 6.039v8.104c-1.839 2.072-3.056 4.283-4.203 6.39-1.016 1.862-2.093 3.812-3.564 5.466 1.06-.836 2.058-1.706 3.012-2.542 1.576-1.376 3.117-2.716 4.746-3.717v7.66c-.236.2-.472.409-.709.618-2.26 1.976-5.035 4.396-8.625 6.25z" fill="#7C716A"/><path d="M106.36 18c.324-.588.684-1.182 1.08-1.782.396-.612.81-1.206 1.242-1.782.432-.576.876-1.116 1.332-1.62.468-.516.93-.984 1.386-1.404a78.832 78.832 0 01-2.574-2.934c-.84-1.032-1.62-2.016-2.34-2.952h2.718c.636.84 1.314 1.71 2.034 2.61.732.9 1.464 1.794 2.196 2.682V5.526h2.214v5.292l2.214-2.718a54.172 54.172 0 002.016-2.574h2.7a123.793 123.793 0 01-4.878 5.868c.972.888 1.89 1.914 2.754 3.078A29.89 29.89 0 01122.74 18h-2.556a33.428 33.428 0 00-2.178-3.132 24.24 24.24 0 00-2.358-2.664V18h-2.214v-5.796a28.117 28.117 0 00-2.376 2.7 36.664 36.664 0 00-2.16 3.096h-2.538zm25.312 0c-.312-.48-.672-.984-1.08-1.512a22.387 22.387 0 00-1.296-1.53c-.444-.492-.906-.96-1.386-1.404-.48-.444-.954-.828-1.422-1.152V18h-2.268V5.526h2.268v5.148c.396-.396.81-.816 1.242-1.26a133.226 133.226 0 002.502-2.718c.384-.432.732-.822 1.044-1.17h2.718c-.396.456-.816.93-1.26 1.422-.444.492-.9.99-1.368 1.494-.468.492-.942.984-1.422 1.476-.468.492-.93.96-1.386 1.404.504.384 1.014.834 1.53 1.35.528.504 1.044 1.05 1.548 1.638.504.576.984 1.182 1.44 1.818.468.624.894 1.248 1.278 1.872h-2.682zm10.472-12.474c.264.456.558 1.014.882 1.674.324.66.654 1.356.99 2.088.336.72.666 1.458.99 2.214.336.744.642 1.434.918 2.07l.9-2.07c.324-.756.654-1.494.99-2.214a88.94 88.94 0 01.99-2.088c.324-.66.618-1.218.882-1.674h2.052c.108.912.21 1.884.306 2.916.096 1.02.18 2.07.252 3.15a137.6 137.6 0 01.216 3.24c.072 1.08.132 2.136.18 3.168h-2.232a325.36 325.36 0 00-.18-4.482 85.474 85.474 0 00-.288-4.464c-.132.276-.288.606-.468.99-.18.384-.372.804-.576 1.26-.204.444-.414.906-.63 1.386-.204.48-.408.948-.612 1.404-.192.444-.372.864-.54 1.26l-.432.99h-1.692c-.12-.276-.264-.612-.432-1.008a46.912 46.912 0 00-.558-1.26 62.991 62.991 0 00-.612-1.404c-.204-.48-.408-.942-.612-1.386-.204-.444-.396-.858-.576-1.242-.18-.396-.336-.726-.468-.99-.132 1.44-.234 2.928-.306 4.464a748.33 748.33 0 00-.162 4.482h-2.232c.048-1.032.102-2.1.162-3.204l.216-3.276c.084-1.092.174-2.148.27-3.168.096-1.02.198-1.962.306-2.826h2.106zm16.034 10.944c.672 0 1.182-.036 1.53-.108V13.95a4.866 4.866 0 00-1.278-.162c-.24 0-.486.018-.738.054-.24.036-.462.102-.666.198a1.197 1.197 0 00-.468.414c-.12.168-.18.384-.18.648 0 .516.162.876.486 1.08.324.192.762.288 1.314.288zm-.18-8.118c.72 0 1.326.09 1.818.27.492.18.882.432 1.17.756.3.324.51.72.63 1.188.132.456.198.96.198 1.512v5.706c-.336.072-.846.156-1.53.252a14.51 14.51 0 01-2.286.162c-.564 0-1.08-.054-1.548-.162a3.344 3.344 0 01-1.206-.522 2.577 2.577 0 01-.774-.936c-.18-.384-.27-.858-.27-1.422 0-.54.102-.996.306-1.368.216-.372.504-.672.864-.9.36-.24.774-.408 1.242-.504.48-.108.978-.162 1.494-.162.24 0 .492.018.756.054.264.024.546.072.846.144v-.36c0-.252-.03-.492-.09-.72a1.371 1.371 0 00-.324-.594 1.36 1.36 0 00-.594-.414c-.24-.096-.546-.144-.918-.144-.504 0-.966.036-1.386.108-.42.072-.762.156-1.026.252l-.27-1.764c.276-.096.678-.192 1.206-.288a9.457 9.457 0 011.692-.144zm10.281 6.156h-.432c-.144 0-.282-.006-.414-.018-.384.576-.738 1.17-1.062 1.782-.324.6-.624 1.176-.9 1.728h-2.232c.324-.744.684-1.458 1.08-2.142.396-.684.768-1.266 1.116-1.746-.588-.252-1.02-.588-1.296-1.008-.264-.432-.396-.936-.396-1.512 0-.528.096-.99.288-1.386.204-.408.486-.744.846-1.008.36-.276.792-.48 1.296-.612a6.083 6.083 0 011.674-.216c.708 0 1.392.042 2.052.126.672.084 1.218.18 1.638.288V18h-2.178v-3.492h-1.08zm1.08-4.338a4.963 4.963 0 00-.612-.054 9.764 9.764 0 00-.846-.036c-1.332 0-1.998.492-1.998 1.476 0 .264.048.486.144.666.108.168.252.306.432.414.18.108.39.186.63.234.24.036.498.054.774.054h1.476V10.17zm6.775 2.196c.276-.276.576-.582.9-.918.324-.348.642-.696.954-1.044l.918-.99c.288-.324.528-.6.72-.828h2.556c-.264.312-.57.654-.918 1.026a98.775 98.775 0 01-3.096 3.258c.372.312.756.678 1.152 1.098.408.408.804.846 1.188 1.314.396.456.762.924 1.098 1.404.336.468.618.906.846 1.314h-2.52c-.228-.36-.498-.738-.81-1.134-.3-.396-.618-.78-.954-1.152a17.718 17.718 0 00-1.026-1.08 10.248 10.248 0 00-1.008-.864V18h-2.178V8.586h2.178v3.78zm9.99-.432h18v1.836h-18v-1.836zm-79.26 22.368c0-.696.108-1.344.324-1.944.216-.612.522-1.14.918-1.584a4.34 4.34 0 011.476-1.044c.576-.252 1.224-.378 1.944-.378a6.59 6.59 0 012.52.486l-.468 1.782a4.89 4.89 0 00-.864-.27 4.477 4.477 0 00-1.008-.108c-.852 0-1.5.27-1.944.81-.444.528-.666 1.278-.666 2.25 0 .936.21 1.68.63 2.232.42.54 1.128.81 2.124.81.372 0 .738-.036 1.098-.108a5.16 5.16 0 00.936-.27l.306 1.8c-.24.12-.606.228-1.098.324-.48.096-.978.144-1.494.144-.804 0-1.506-.12-2.106-.36a4.23 4.23 0 01-1.476-1.026 4.424 4.424 0 01-.864-1.566 6.581 6.581 0 01-.288-1.98zm12.396 4.878c-.348 0-.702-.012-1.062-.036-.36-.024-.708-.054-1.044-.09-.324-.036-.63-.072-.918-.108a9.46 9.46 0 01-.72-.144v-9.09c.192-.048.432-.09.72-.126.288-.048.594-.084.918-.108.336-.036.684-.06 1.044-.072.36-.024.714-.036 1.062-.036 1.272 0 2.262.234 2.97.702.708.456 1.062 1.098 1.062 1.926a2.084 2.084 0 01-1.17 1.908c.432.168.804.432 1.116.792.312.36.468.87.468 1.53 0 .948-.372 1.68-1.116 2.196-.744.504-1.854.756-3.33.756zm.054-5.814c.54 0 .984-.078 1.332-.234.36-.156.54-.468.54-.936a.842.842 0 00-.18-.558 1.097 1.097 0 00-.45-.342 2.17 2.17 0 00-.666-.162 5.599 5.599 0 00-.792-.054c-.216 0-.468.006-.756.018-.276.012-.498.03-.666.054v2.214h1.638zm-1.638 4.014c.144.024.378.048.702.072.336.012.648.018.936.018.648 0 1.182-.09 1.602-.27.432-.18.648-.522.648-1.026 0-.492-.198-.828-.594-1.008-.384-.192-.888-.288-1.512-.288h-1.782v2.502zm7.206-3.042c0-.828.12-1.554.36-2.178.252-.624.582-1.14.99-1.548a3.9 3.9 0 011.404-.936 4.242 4.242 0 011.62-.324c1.296 0 2.304.402 3.024 1.206.732.804 1.098 2.004 1.098 3.6 0 .12-.006.258-.018.414a4 4 0 01-.018.396h-6.21c.06.756.324 1.344.792 1.764.48.408 1.17.612 2.07.612a6.65 6.65 0 001.44-.144 5.94 5.94 0 001.044-.306l.288 1.782a4.02 4.02 0 01-.504.198c-.204.06-.444.114-.72.162a8.317 8.317 0 01-1.818.198c-.828 0-1.548-.12-2.16-.36-.612-.252-1.116-.594-1.512-1.026a4.303 4.303 0 01-.882-1.548 6.407 6.407 0 01-.288-1.962zm6.318-.972c0-.3-.042-.582-.126-.846a1.882 1.882 0 00-.378-.702 1.52 1.52 0 00-.594-.468 1.758 1.758 0 00-.828-.18c-.336 0-.63.066-.882.198-.252.12-.468.282-.648.486-.168.204-.3.438-.396.702a3.803 3.803 0 00-.198.81h4.05zm11.219-1.962h-3.042V39h-2.178v-7.596h-3.024v-1.818h8.244v1.818zM155.429 39h-2.178v-3.942h-3.546V39h-2.178v-9.414h2.178v3.672h3.546v-3.672h2.178V39zm10.922-4.716c0 .744-.108 1.422-.324 2.034a4.502 4.502 0 01-.918 1.566 4.108 4.108 0 01-1.44 1.008c-.552.24-1.164.36-1.836.36-.672 0-1.284-.12-1.836-.36a4.149 4.149 0 01-1.422-1.008 4.73 4.73 0 01-.936-1.566 6.078 6.078 0 01-.324-2.034c0-.744.108-1.416.324-2.016a4.73 4.73 0 01.936-1.566 4.124 4.124 0 011.44-.99 4.51 4.51 0 011.818-.36c.66 0 1.266.12 1.818.36a3.915 3.915 0 011.44.99c.396.432.702.954.918 1.566.228.6.342 1.272.342 2.016zm-2.232 0c0-.936-.204-1.674-.612-2.214-.396-.552-.954-.828-1.674-.828s-1.284.276-1.692.828c-.396.54-.594 1.278-.594 2.214 0 .948.198 1.698.594 2.25.408.552.972.828 1.692.828s1.278-.276 1.674-.828c.408-.552.612-1.302.612-2.25zm7.86 4.896c-.348 0-.702-.012-1.062-.036-.36-.024-.708-.054-1.044-.09-.324-.036-.63-.072-.918-.108a9.46 9.46 0 01-.72-.144v-9.09c.192-.048.432-.09.72-.126.288-.048.594-.084.918-.108.336-.036.684-.06 1.044-.072.36-.024.714-.036 1.062-.036 1.272 0 2.262.234 2.97.702.708.456 1.062 1.098 1.062 1.926a2.084 2.084 0 01-1.17 1.908c.432.168.804.432 1.116.792.312.36.468.87.468 1.53 0 .948-.372 1.68-1.116 2.196-.744.504-1.854.756-3.33.756zm.054-5.814c.54 0 .984-.078 1.332-.234.36-.156.54-.468.54-.936a.842.842 0 00-.18-.558 1.097 1.097 0 00-.45-.342 2.17 2.17 0 00-.666-.162 5.599 5.599 0 00-.792-.054c-.216 0-.468.006-.756.018-.276.012-.498.03-.666.054v2.214h1.638zm-1.638 4.014c.144.024.378.048.702.072.336.012.648.018.936.018.648 0 1.182-.09 1.602-.27.432-.18.648-.522.648-1.026 0-.492-.198-.828-.594-1.008-.384-.192-.888-.288-1.512-.288h-1.782v2.502zm16.242-3.096c0 .744-.108 1.422-.324 2.034a4.502 4.502 0 01-.918 1.566 4.108 4.108 0 01-1.44 1.008c-.552.24-1.164.36-1.836.36-.672 0-1.284-.12-1.836-.36a4.149 4.149 0 01-1.422-1.008 4.73 4.73 0 01-.936-1.566 6.078 6.078 0 01-.324-2.034c0-.744.108-1.416.324-2.016a4.73 4.73 0 01.936-1.566 4.124 4.124 0 011.44-.99 4.51 4.51 0 011.818-.36c.66 0 1.266.12 1.818.36a3.915 3.915 0 011.44.99c.396.432.702.954.918 1.566.228.6.342 1.272.342 2.016zm-2.232 0c0-.936-.204-1.674-.612-2.214-.396-.552-.954-.828-1.674-.828s-1.284.276-1.692.828c-.396.54-.594 1.278-.594 2.214 0 .948.198 1.698.594 2.25.408.552.972.828 1.692.828s1.278-.276 1.674-.828c.408-.552.612-1.302.612-2.25zm10.362-2.898h-4.068V39h-2.178v-9.414h6.246v1.8zm9.765 2.898c0 .744-.108 1.422-.324 2.034a4.502 4.502 0 01-.918 1.566 4.108 4.108 0 01-1.44 1.008c-.552.24-1.164.36-1.836.36-.672 0-1.284-.12-1.836-.36a4.149 4.149 0 01-1.422-1.008 4.73 4.73 0 01-.936-1.566 6.078 6.078 0 01-.324-2.034c0-.744.108-1.416.324-2.016a4.73 4.73 0 01.936-1.566 4.124 4.124 0 011.44-.99 4.51 4.51 0 011.818-.36c.66 0 1.266.12 1.818.36a3.915 3.915 0 011.44.99c.396.432.702.954.918 1.566.228.6.342 1.272.342 2.016zm-2.232 0c0-.936-.204-1.674-.612-2.214-.396-.552-.954-.828-1.674-.828s-1.284.276-1.692.828c-.396.54-.594 1.278-.594 2.214 0 .948.198 1.698.594 2.25.408.552.972.828 1.692.828s1.278-.276 1.674-.828c.408-.552.612-1.302.612-2.25zm14.203-2.898h-4.068V39h-2.178v-9.414h6.246v1.8zm9.766 2.898c0 .744-.108 1.422-.324 2.034a4.502 4.502 0 01-.918 1.566 4.108 4.108 0 01-1.44 1.008c-.552.24-1.164.36-1.836.36-.672 0-1.284-.12-1.836-.36a4.149 4.149 0 01-1.422-1.008 4.73 4.73 0 01-.936-1.566 6.078 6.078 0 01-.324-2.034c0-.744.108-1.416.324-2.016a4.73 4.73 0 01.936-1.566 4.124 4.124 0 011.44-.99 4.51 4.51 0 011.818-.36c.66 0 1.266.12 1.818.36a3.915 3.915 0 011.44.99c.396.432.702.954.918 1.566.228.6.342 1.272.342 2.016zm-2.232 0c0-.936-.204-1.674-.612-2.214-.396-.552-.954-.828-1.674-.828s-1.284.276-1.692.828c-.396.54-.594 1.278-.594 2.214 0 .948.198 1.698.594 2.25.408.552.972.828 1.692.828s1.278-.276 1.674-.828c.408-.552.612-1.302.612-2.25zm10.362.054c0-.972-.222-1.728-.666-2.268-.432-.54-1.134-.81-2.106-.81-.204 0-.42.012-.648.036a3.047 3.047 0 00-.648.108v5.382c.192.132.444.258.756.378.324.108.666.162 1.026.162.792 0 1.368-.27 1.728-.81.372-.54.558-1.266.558-2.178zm2.232-.036c0 .72-.096 1.38-.288 1.98-.18.6-.444 1.116-.792 1.548a3.54 3.54 0 01-1.314 1.008c-.516.24-1.104.36-1.764.36-.444 0-.852-.054-1.224-.162a4.574 4.574 0 01-.918-.36v3.654h-2.178V29.892c.444-.12.99-.234 1.638-.342a12.476 12.476 0 012.052-.162c.744 0 1.41.114 1.998.342a4.023 4.023 0 011.494.99c.42.42.738.936.954 1.548.228.6.342 1.278.342 2.034zm10.398-.018c0 .744-.108 1.422-.324 2.034a4.502 4.502 0 01-.918 1.566 4.108 4.108 0 01-1.44 1.008c-.552.24-1.164.36-1.836.36-.672 0-1.284-.12-1.836-.36a4.149 4.149 0 01-1.422-1.008 4.73 4.73 0 01-.936-1.566 6.078 6.078 0 01-.324-2.034c0-.744.108-1.416.324-2.016a4.73 4.73 0 01.936-1.566 4.124 4.124 0 011.44-.99 4.51 4.51 0 011.818-.36c.66 0 1.266.12 1.818.36a3.915 3.915 0 011.44.99c.396.432.702.954.918 1.566.228.6.342 1.272.342 2.016zm-2.232 0c0-.936-.204-1.674-.612-2.214-.396-.552-.954-.828-1.674-.828s-1.284.276-1.692.828c-.396.54-.594 1.278-.594 2.214 0 .948.198 1.698.594 2.25.408.552.972.828 1.692.828s1.278-.276 1.674-.828c.408-.552.612-1.302.612-2.25zm2.964 2.934h1.08c.372-.492.66-1.038.864-1.638.216-.612.372-1.248.468-1.908.096-.672.156-1.356.18-2.052.024-.696.042-1.374.054-2.034h6.75v7.632h1.44v4.446h-1.944V39h-6.966v2.664h-1.926v-4.446zm7.218 0v-5.832h-2.556a72.46 72.46 0 01-.09 1.512 13.04 13.04 0 01-.198 1.512 10.49 10.49 0 01-.396 1.458 6.563 6.563 0 01-.63 1.35h3.87zm8.277.252c.672 0 1.182-.036 1.53-.108V34.95a4.866 4.866 0 00-1.278-.162c-.24 0-.486.018-.738.054-.24.036-.462.102-.666.198a1.197 1.197 0 00-.468.414c-.12.168-.18.384-.18.648 0 .516.162.876.486 1.08.324.192.762.288 1.314.288zm-.18-8.118c.72 0 1.326.09 1.818.27.492.18.882.432 1.17.756.3.324.51.72.63 1.188.132.456.198.96.198 1.512v5.706c-.336.072-.846.156-1.53.252a14.51 14.51 0 01-2.286.162c-.564 0-1.08-.054-1.548-.162a3.344 3.344 0 01-1.206-.522 2.577 2.577 0 01-.774-.936c-.18-.384-.27-.858-.27-1.422 0-.54.102-.996.306-1.368.216-.372.504-.672.864-.9.36-.24.774-.408 1.242-.504.48-.108.978-.162 1.494-.162.24 0 .492.018.756.054.264.024.546.072.846.144v-.36c0-.252-.03-.492-.09-.72a1.371 1.371 0 00-.324-.594 1.36 1.36 0 00-.594-.414c-.24-.096-.546-.144-.918-.144-.504 0-.966.036-1.386.108-.42.072-.762.156-1.026.252l-.27-1.764c.276-.096.678-.192 1.206-.288a9.457 9.457 0 011.692-.144z" fill="#7C716A"/></svg>