<svg width="449" height="136" fill="none" xmlns="http://www.w3.org/2000/svg"><path fill-rule="evenodd" clip-rule="evenodd" d="M166.13 28.487a56.802 56.802 0 005.531-24.5l.019.038h13.088v81.616H171.68V28.26c-2.756 5.806-6.113 12.683-9.807 19.653-13.013 24.556-22.444 37.031-30.469 39.68-2.569.846-5.457 1.128-8.119.79-19.477-2.525-15.699-22.287-11.451-44.502a615.805 615.805 0 001.644-8.838c1.857-10.54 3.413-21.568 2.494-25.288-.562-2.086-2.344-2.819-4.219-2.65-2.212.226-4.987 2.612-6.356 4.697L57.47 85.622C33 123.63 11.775 133.607 0 135.955v-5.091c10.482-2.48 29.476-11.837 51.639-45.242l49.876-76.843c2.194-3.401 6.132-6.426 9.563-7.929 3.844-1.691 12.582-1.165 15.132 4.396 1.687 3.664 2.269 14.486 0 32.24a907.12 907.12 0 01-.87 6.53c-2.249 16.605-4.904 36.204.645 39.464.544.338 1.462.695 3.075.17 10.331-3.42 26.457-32.993 37.07-55.163zm118.738 57.115L244.404 3.986h-15.863l-40.558 81.616h5.476l13.875-27.92c1.894-3.813 5.363-6.65 9.507-7.57 26.532-5.92 46.857 23.503 49.257 27.13l4.144 8.36h14.626zm-71.721-39.587l18.769-37.764 25.444 51.33c-10.312-9.583-25.95-19.052-44.213-13.547v-.019zm218.786-36.77c-6.001.846-17.776 9.094-29.101 22.19v.018c23.082 7.347 38.663 37.896 45.432 53.922h-14.25c-6.432-13.978-16.819-31.357-29.326-38.797-5.494-3.27-12.544-1.259-15.769 4.265a124.81 124.81 0 00-4.744 9.056v25.72h-13.088V4.005h13.088v45.317c14.063-24.425 36.057-43.87 47.758-44.998v4.923zM320.702 4.06h25.592l.022-.043h13.146v81.61h-13.146V69.855c0-6.593-4.826-12.14-11.355-13.207l-.046-.01c-.089-.017-.166-.033-.259-.033a16.942 16.942 0 00-15.482 5.7c-5.918 6.94-11.028 15.426-15.002 23.345h-14.521c4.258-9.377 10.875-21.626 19.565-31.787-9.804-4.33-16.377-15.034-15.176-26.63 1.398-13.316 13.211-23.172 26.662-23.172zm25.592 51.978V23.294h-.022V7.977h-16.923c-12.97 0-23.321 11.14-21.967 24.346 1.136 10.9 10.438 19.015 21.4 19.907 9.455.784 17.512 3.808 17.512 3.808z" fill="#4A433F"/></svg>