<svg width="920" height="280" fill="none" xmlns="http://www.w3.org/2000/svg"><path fill-rule="evenodd" clip-rule="evenodd" d="M340.958 58.67c7.504-15.749 11.352-33.007 11.352-50.458l.039.078h26.861v168.087h-26.861V58.205c-5.657 11.957-12.546 26.119-20.127 40.474-26.707 50.573-46.064 76.266-62.534 81.722-5.272 1.742-11.199 2.322-16.663 1.625-39.973-5.199-32.219-45.899-23.502-91.652 1.144-6.003 2.304-12.092 3.375-18.2 3.81-21.708 7.004-44.421 5.118-52.083-1.154-4.295-4.81-5.804-8.658-5.455-4.541.464-10.237 5.378-13.046 9.673L117.95 176.338C67.73 254.617 24.167 275.163 0 280v-10.486c21.512-5.108 60.495-24.377 105.982-93.176L208.346 18.079c4.503-7.003 12.584-13.233 19.626-16.329 7.889-3.482 25.822-2.399 31.056 9.055 3.463 7.545 4.656 29.833 0 66.399-.551 4.304-1.16 8.82-1.785 13.448-4.617 34.197-10.066 74.561 1.323 81.275 1.116.697 3.002 1.432 6.311.348 21.204-7.042 54.3-67.946 76.081-113.606zm243.693 117.627L501.605 8.21h-32.557L385.81 176.297h11.237l28.477-57.499c3.887-7.855 11.006-13.698 19.511-15.594 54.453-12.189 96.169 48.406 101.095 55.874l8.504 17.219h30.017zM437.454 94.769l38.521-77.776 52.222 105.713c-21.166-19.734-53.261-39.236-90.743-27.899v-.038zm449.027-75.727c-12.314 1.741-36.482 18.728-59.725 45.698v.038c47.372 15.13 79.351 78.046 93.244 111.053h-29.247c-13.2-28.789-34.519-64.581-60.188-79.904-11.275-6.733-25.745-2.592-32.364 8.784-3.463 5.997-6.696 12.227-9.736 18.65v52.973h-26.861V8.246h26.861v93.33c28.862-50.302 74.003-90.35 98.016-92.672v10.138zM658.197 8.362h52.524l.045-.09h26.979V176.35h-26.979v-32.486c0-13.577-9.904-25.004-23.304-27.199l-.045-.009-.051-.011c-.182-.037-.34-.07-.532-.07a34.706 34.706 0 00-31.774 11.74c-12.145 14.294-22.632 31.769-30.789 48.08h-29.802c8.739-19.313 22.318-44.54 40.155-65.466-20.123-8.917-33.612-30.963-31.147-54.846 2.868-27.423 27.113-47.72 54.72-47.72zm52.524 107.048V47.973h-.045V16.428h-34.732c-26.621 0-47.863 22.942-45.085 50.14 2.331 22.45 21.422 39.163 43.92 41.001 19.405 1.613 35.942 7.841 35.942 7.841z" fill="#FFE9D2"/></svg>