<svg width="245" height="66" fill="none" xmlns="http://www.w3.org/2000/svg"><g clip-path="url(#clip0_651_5913)"><path fill-rule="evenodd" clip-rule="evenodd" d="M38.406 35.68V.476h-4.514v27.922L.5 0c.186.893.286 1.803.299 2.715v35.201h4.514V10.003l33.395 28.395a14.293 14.293 0 01-.302-2.717zm17.786 2.236h4.514V.475h-4.514v37.441zm54.439-1.538L89.541 18.45l19.327-16.434a14.476 14.476 0 012.271-1.538h-4.87a6.026 6.026 0 00-3.685 1.216L83.002 18.348V.475H78.49v37.441h4.513V19.045l20.768 17.66a6.038 6.038 0 003.686 1.216h5.443a14.29 14.29 0 01-2.268-1.539m62.661-16.058h15.795l1.22-3.746H173.29V4.22h18.055l1.22-3.745h-23.79v37.441h22.57l1.22-3.744H173.29v-13.85l.002.002zm70.907 15.36V.473h-4.514v27.923L206.292 0c.186.893.287 1.803.299 2.715v35.201h4.514V10.003L244.5 38.398a14.35 14.35 0 01-.301-2.717m-88.425.7l-21.087-17.932 19.327-16.434c.707-.584 1.468-1.1 2.273-1.54h-4.868a6.038 6.038 0 00-3.687 1.216l-19.585 16.657V.475h-4.514v37.441h4.514V19.045l20.767 17.66a6.043 6.043 0 003.687 1.216h5.443a14.379 14.379 0 01-2.27-1.539M.799 52.9h5.557v1.102H1.992v3.169h4.234v1.1H1.992v4.19h4.364v1.102H.799V52.898v.002zm11.015 0h1.365l2.187 4.017 2.189-4.017h1.366l-2.897 5.15 3.172 5.519h-1.373l-2.46-4.388-2.457 4.388H11.54l3.172-5.519-2.898-5.15zm14.31 10.669h-1.19V52.898h1.76c.923-.088 1.85.11 2.658.564a2.937 2.937 0 011.207 2.434 2.998 2.998 0 01-1.023 2.293 3.871 3.871 0 01-2.542.707h-.87v4.673zm0-5.774h.798c1.32 0 2.44-.397 2.44-1.925 0-1.74-1.407-1.867-2.8-1.867h-.44v3.793l.003-.001zm9.793-4.895h5.557v1.102h-4.362v3.169h4.235v1.1h-4.235v4.19h4.362v1.102h-5.557V52.898v.002zm12.62 10.669h-1.191V52.898h1.55c2.03 0 3.92.537 3.92 2.936a2.804 2.804 0 01-.726 2.037 2.787 2.787 0 01-1.958.907l3.416 4.783h-1.464l-3.24-4.684h-.299v4.684l-.007.008zm0-5.732h.367c1.348 0 2.713-.254 2.713-1.91 0-1.753-1.293-1.924-2.728-1.924h-.356v3.834h.005zm11.57 5.73h-1.194v-10.67h1.195v10.671zm6.44-10.667h5.555v1.102H67.74v3.169h4.234v1.1H67.74v4.19h4.362v1.102h-5.555V52.898v.002zm11.496-.454L86.4 61.16v-8.262h1.194v11.148l-8.355-8.699v8.22h-1.195V52.443v.002zm23.578 2.787a4.606 4.606 0 00-3.267-1.414 4.395 4.395 0 00-3.061 1.328 4.422 4.422 0 00.018 6.192 4.395 4.395 0 003.07 1.308 4.703 4.703 0 003.24-1.415V62.7a5.503 5.503 0 01-7.171-.55 5.533 5.533 0 01-1.538-4.803A5.54 5.54 0 0195.9 53.29a5.502 5.502 0 012.523-.577 5.195 5.195 0 013.198 1.046v1.474zm6.071-2.334h5.555V54h-4.362v3.17h4.234v1.1h-4.234v4.191h4.362v1.102h-5.555V52.898v.001zm11.411 9.48L117.497 66l-.767-.308 1.321-3.678 1.052.364zm9.451 1.187h-1.192v-10.67h1.192v10.67zm6.509-11.12l8.356 8.712v-8.26h1.195v11.148l-8.356-8.699v8.22h-1.198V52.443l.003.001zm18.888 11.12h-1.193v-9.565h-2.587v-1.1h6.397V54h-2.617v9.565zm8.317-10.667h5.556V54h-4.363v3.17h4.234v1.1h-4.234v4.191h4.363v1.102h-5.56V52.898l.004.001zm21.387 5.306a5.051 5.051 0 01-1.109 3.762 5.304 5.304 0 01-3.965 1.783 5.492 5.492 0 01-4.615-2.726 5.54 5.54 0 01-.117-5.37 5.504 5.504 0 014.492-2.927 5.49 5.49 0 014.845 2.293l-.866.807a4.353 4.353 0 00-3.681-2.009 4.423 4.423 0 00-3.104 1.325 4.457 4.457 0 00-1.274 3.133 4.29 4.29 0 001.252 3.012 4.503 4.503 0 003.04 1.358 3.66 3.66 0 002.581-.9 3.687 3.687 0 001.243-2.439h-3.183v-1.101h4.461v-.002zm7.156 5.361h-1.194V52.898h1.55c2.032 0 3.921.537 3.921 2.936a2.795 2.795 0 01-2.684 2.944l3.416 4.783h-1.464l-3.24-4.684h-.305v4.689zm0-5.731h.367c1.349 0 2.713-.255 2.713-1.91 0-1.753-1.293-1.925-2.728-1.925h-.352v3.835zm11.313 2.702l-1.294 3.028h-1.307l4.945-11.177 4.818 11.177h-1.322l-1.264-3.028h-4.576zm2.318-5.377l-1.83 4.273h3.623l-1.793-4.273zm12.265 8.405h-1.193v-9.563h-2.585V52.9h6.396v1.102h-2.627v9.564l.009-.001zm8.103-10.667h5.556v1.101h-4.364v3.17h4.236v1.1h-4.236v4.192h4.364v1.102h-5.556V52.898zm11.426 0h2.018a5.852 5.852 0 014.178 1.287 5.459 5.459 0 01.028 8.038 5.723 5.723 0 01-4.234 1.346h-1.99V52.898zm2.06 9.565a4.503 4.503 0 003.382-1.102 4.344 4.344 0 00-.056-6.324 4.627 4.627 0 00-3.326-1.032h-.865v8.456h.865v.002z" fill="#000"/></g><defs><clipPath id="clip0_651_5913"><path fill="#fff" transform="translate(.5)" d="M0 0h244v66H0z"/></clipPath></defs></svg>