<svg width="313" height="66" fill="none" xmlns="http://www.w3.org/2000/svg"><g clip-path="url(#clip0_651_5905)"><path fill-rule="evenodd" clip-rule="evenodd" d="M30.186 0H16.77v30.354h13.416V0zM26.83 26.98h-6.71V3.374h6.709v23.604zm178.303-2.261V14.126c-2.103 3.908-4.163 7.437-6.173 10.593h-3.594v-14.65h2.683v11.056c2.534-4.097 4.684-7.785 6.45-11.056h3.318v14.65h-2.684zM3.357 57.336H0v-16.86h23.481v13.49H3.357v3.37zm16.768-13.49H3.357v6.745h16.768v-6.745zM40.248 53.96H26.832V40.47h30.184v13.49H43.6v3.37h-3.352v-3.37zm13.417-10.12H43.6v6.745h10.065V43.84zm-13.417 0H30.183v6.745h10.065V43.84zm233.363-25.616h6.228v6.496h2.683V10.07h-2.683v5.635h-6.228V10.07h-2.768v14.65h2.768v-6.496zM13.416 30.354H0V8.432L8.387 0h5.03v30.354zm-3.351-26.98L3.357 10.12v16.86h6.708V3.374zm242.38 20.387c.638-.643.96-1.663.96-3.062 0-.587-.045-1.085-.138-1.493a3.26 3.26 0 00-.485-1.13c-.233-.344-.575-.607-1.02-.792-.451-.184-1.006-.288-1.674-.318.515-.05.956-.135 1.327-.264a2.78 2.78 0 00.891-.468c.223-.184.396-.418.524-.707.129-.288.213-.577.253-.876.04-.298.06-.657.06-1.075 0-.572-.05-1.06-.154-1.459a2.958 2.958 0 00-.535-1.085c-.257-.323-.623-.567-1.104-.721-.48-.155-1.074-.234-1.787-.234h-7.857v14.65h7.951c1.219 0 2.144-.32 2.788-.962v-.005zm-7.971-11.335h4.471c.465 0 .787.134.975.408.188.274.281.707.281 1.305 0 1.17-.42 1.757-1.256 1.757h-4.471v-3.47zm0 9.946V18.16h4.515c.985 0 1.48.717 1.48 2.156s-.465 2.056-1.396 2.056h-4.599zM123.35 34.237v12.255h-2.763V34.237h-4.935v-2.394h12.634v2.394h-4.936zm49.447 12.255v-14.65h-3.317c-1.767 3.271-3.916 6.96-6.451 11.056V31.843h-2.683v14.65h3.594c2.01-3.157 4.07-6.686 6.173-10.593v10.592h2.684zm3.8-28.27h-6.228v6.497h-2.768v-14.65h2.768v5.635h6.228v-5.635h2.683v14.65h-2.683v-6.496zm5.828 28.27V34.237h4.932v-2.394h-12.63v2.394h4.931v12.255h2.767zM0 33.726h57.023v3.375H0v-3.375zm131.55-19.6v10.593h2.683v-14.65h-3.317c-1.767 3.27-3.916 6.96-6.451 11.056V10.069h-2.683v14.65h3.594c2.01-3.156 4.07-6.685 6.174-10.593zm15.406 4.097h-6.228v6.496h-2.768v-14.65h2.768v5.635h6.228v-5.635h2.684v14.65h-2.684v-6.496zm8.458 2.852h6.361c.288.806.758 2.021 1.412 3.644h3.054c-.797-1.912-1.678-4.221-2.648-6.94a213.625 213.625 0 01-2.6-7.71h-4.327c-.94 2.22-1.876 4.68-2.812 7.382-.286.83-.565 1.633-.834 2.41a2831.02 2831.02 0 00-1.68 4.858h2.94c.401-1.34.782-2.554 1.134-3.644zm2.921-8.656h.559a142.933 142.933 0 002.03 6.262h-4.861c.832-2.425 1.584-4.51 2.267-6.262h.005zm41.513 19.424v2.394h-7.821v3.365h5.574v2.394h-5.574v4.107h7.821v2.39h-10.589v-14.65h10.589zM105.23 21.368c.456.463 1.075.812 1.858 1.04.782.234 1.772.379 2.97.444v1.866h2.767v-1.866c1.213-.06 2.213-.21 3.015-.443.797-.234 1.431-.578 1.906-1.04a3.797 3.797 0 001-1.648c.193-.638.288-1.424.288-2.36 0-.936-.095-1.722-.288-2.35a3.733 3.733 0 00-1-1.627c-.475-.458-1.109-.796-1.906-1.026-.797-.229-1.802-.373-3.015-.433V10.08h-2.767v1.846c-1.198.06-2.188.204-2.97.433-.783.23-1.402.573-1.858 1.036a3.782 3.782 0 00-.959 1.633c-.184.627-.278 1.408-.278 2.344 0 .936.094 1.732.278 2.364.182.633.504 1.18.959 1.643v-.01zm9.402-7.003c-.447-.114-1.047-.179-1.792-.2v6.417c.604-.015 1.104-.065 1.51-.155.401-.09.733-.204.99-.353.258-.15.456-.358.589-.627.134-.269.223-.558.272-.871.045-.309.07-.707.07-1.195 0-.622-.04-1.115-.114-1.473a2.077 2.077 0 00-.48-.956c-.248-.279-.595-.473-1.045-.587zm-7.757 1.563a2.03 2.03 0 01.465-.946c.233-.269.564-.463.995-.583.43-.114 1.005-.189 1.727-.214v6.397a7.684 7.684 0 01-1.435-.165 3.274 3.274 0 01-.95-.358 1.484 1.484 0 01-.57-.627 2.97 2.97 0 01-.272-.866 7.825 7.825 0 01-.069-1.185c0-.607.039-1.095.113-1.453h-.004zM43.605 3.375l-6.709 6.745v20.234H33.54V8.432L41.926 0h5.035v5.072L51.991.01V0h5.03v30.354h-3.357V3.374l-6.703 6.746v20.234h-3.356V3.374zM183.33 22.576a4.203 4.203 0 001.366 1.434 5.798 5.798 0 001.906.772c.708.159 1.54.234 2.49.234.673 0 1.402-.05 2.173-.15a14.99 14.99 0 002.01-.378l-.614-2.45c-.365.14-.85.25-1.444.334a11.79 11.79 0 01-1.649.13c-.565 0-1.04-.025-1.431-.07a4.61 4.61 0 01-1.11-.278 2.174 2.174 0 01-.841-.568c-.213-.239-.396-.552-.555-.94a5.454 5.454 0 01-.336-1.4 16.986 16.986 0 01-.099-1.95c0-.757.035-1.405.099-1.942.064-.538.179-.996.336-1.374.159-.378.342-.677.55-.906.208-.229.49-.403.846-.528a4.89 4.89 0 011.105-.253c.376-.04.857-.06 1.436-.06.495 0 1.044.045 1.638.134.594.09 1.079.204 1.455.339l.614-2.444a14.465 14.465 0 00-2.019-.389 16.245 16.245 0 00-2.164-.154c-.96 0-1.792.07-2.49.21a5.863 5.863 0 00-1.906.72 3.845 3.845 0 00-1.366 1.375c-.347.577-.609 1.299-.793 2.165-.183.866-.277 1.897-.277 3.091 0 1.195.089 2.23.273 3.101.178.872.446 1.608.797 2.206v-.01zm-75.055 12.268a3.098 3.098 0 00-.549.905v.01a5.122 5.122 0 00-.337 1.374c-.064.538-.1 1.185-.1 1.942 0 .756.036 1.403.1 1.95.064.544.178 1.011.337 1.4.157.388.341.702.554.94.213.24.49.429.842.568.351.14.723.229 1.108.279.392.044.867.07 1.431.07.505 0 1.055-.045 1.649-.13.594-.085 1.079-.194 1.446-.334l.613 2.45c-.564.154-1.233.278-2.009.378-.773.1-1.501.15-2.174.15-.951 0-1.782-.076-2.49-.235a5.785 5.785 0 01-1.906-.771 4.206 4.206 0 01-1.367-1.434c-.351-.597-.618-1.334-.797-2.205-.183-.871-.272-1.907-.272-3.101 0-1.195.094-2.225.277-3.091.183-.867.446-1.588.792-2.166a3.862 3.862 0 011.367-1.374 5.852 5.852 0 011.906-.721c.698-.14 1.53-.21 2.49-.21.668 0 1.386.05 2.163.155.773.1 1.451.229 2.02.388l-.613 2.444a7.964 7.964 0 00-1.456-.338 11.09 11.09 0 00-1.639-.135c-.579 0-1.059.02-1.435.06a4.88 4.88 0 00-1.104.254c-.357.124-.639.299-.847.528zm62.865 22.57a67.476 67.476 0 011.923 4.403 52.871 52.871 0 011.898-4.404h1.679v6.894h-1.262V59.17a127.928 127.928 0 00-1.912 4.505h-1.014c-.867-2.22-1.481-3.723-1.837-4.505v5.137h-1.263v-6.894h1.788zm63.841-22.57a3.257 3.257 0 00-.55.905v.01a5.199 5.199 0 00-.337 1.374 16.7 16.7 0 00-.098 1.942c0 .756.034 1.403.098 1.95a5.45 5.45 0 00.337 1.4c.159.388.342.702.555.94.207.24.49.429.841.568.352.14.723.229 1.109.279.392.044.867.07 1.432.07.504 0 1.054-.045 1.648-.13.594-.085 1.079-.194 1.445-.334l.614 2.45a14.86 14.86 0 01-2.01.378c-.777.1-1.5.15-2.173.15-.951 0-1.783-.076-2.49-.235a5.793 5.793 0 01-1.906-.771 4.206 4.206 0 01-1.367-1.434c-.351-.597-.614-1.334-.797-2.205-.183-.871-.272-1.907-.272-3.101 0-1.195.094-2.225.277-3.091.183-.867.446-1.588.792-2.166a3.854 3.854 0 011.367-1.374 5.852 5.852 0 011.906-.721c.698-.14 1.529-.21 2.49-.21.668 0 1.386.05 2.164.155.771.1 1.445.229 2.019.388l-.614 2.444a7.92 7.92 0 00-1.455-.338 11.088 11.088 0 00-1.638-.135c-.58 0-1.06.02-1.437.06a4.892 4.892 0 00-1.104.254c-.356.124-.638.299-.846.528zm-.101-10.187a5.097 5.097 0 002.144-1.24c.599-.582 1.04-1.383 1.322-2.389.282-1.01.421-2.26.421-3.758 0-1.184-.094-2.21-.283-3.071-.188-.861-.46-1.583-.821-2.155a4.097 4.097 0 00-1.401-1.38 6.134 6.134 0 00-1.931-.73c-.708-.145-1.545-.215-2.505-.215-.961 0-1.793.07-2.5.214a6.172 6.172 0 00-1.931.732 4.046 4.046 0 00-1.401 1.379c-.351.577-.624 1.294-.817 2.155-.188.861-.287 1.887-.287 3.071 0 1.185.094 2.245.282 3.126.188.881.461 1.623.817 2.215a4.12 4.12 0 001.396 1.424 6.045 6.045 0 001.926.762c.713.149 1.554.224 2.515.224 1.208 0 2.228-.12 3.054-.364zm-5.505-2.523a1.991 1.991 0 01-.743-.573c-.183-.234-.341-.552-.465-.95a6.56 6.56 0 01-.262-1.384 23.26 23.26 0 01-.069-1.922c0-.761.025-1.394.069-1.916.045-.518.129-.976.258-1.364.128-.393.281-.702.465-.921.178-.224.43-.403.747-.538a3.87 3.87 0 011.035-.274c.371-.044.842-.064 1.416-.064s1.04.02 1.411.065c.371.044.718.134 1.04.273.316.135.569.314.747.538.183.219.337.528.466.92.129.394.217.847.267 1.365.044.517.069 1.155.069 1.916 0 .762-.025 1.399-.069 1.922a6.62 6.62 0 01-.263 1.383c-.124.399-.282.717-.465.951a1.985 1.985 0 01-.752.573 3.632 3.632 0 01-1.045.298c-.382.05-.852.075-1.411.075-.56 0-1.03-.025-1.411-.075a3.405 3.405 0 01-1.039-.298h.004zm-7.2-3.735a3.242 3.242 0 01-1.243 1.06l.005-.01c-.519.26-1.109.389-1.777.389h-4.842v4.878h-2.768v-14.65h7.536c2.678 0 4.02 1.678 4.02 5.023 0 .647-.08 1.245-.233 1.802a5.013 5.013 0 01-.698 1.508zm-7.862-5.973v5.152h4.055c.579 0 1.019-.21 1.332-.632.312-.418.465-1.046.465-1.872 0-1.767-.579-2.648-1.737-2.648h-4.115zm13.941 25.972a2.946 2.946 0 00-1.213-1.02c-.51-.239-1.109-.363-1.802-.363h-5.045v-5.172h-2.767v14.65h7.941c1.272 0 2.218-.409 2.837-1.22.613-.812.925-1.981.925-3.505 0-.687-.069-1.309-.213-1.871a4.705 4.705 0 00-.658-1.498h-.005zm-2.441 5.157c-.247.394-.644.588-1.188.588h-4.431v-4.774h4.372c1.084 0 1.623.802 1.623 2.404 0 .797-.123 1.394-.37 1.782h-.006zm-21.881 2.937h-2.911c1.777-5.445 2.758-10.328 2.951-14.65h9.748v14.65h-2.684V34.237h-4.534a48.778 48.778 0 01-.887 6.108 49.247 49.247 0 01-1.683 6.147zm-8.188 11.957l-.693.731 1.748 2.066-1.748 2.021.713.722 2.659-2.773-2.679-2.767zm3.739 2.797l-1.742-2.066.693-.731 2.673 2.767-2.654 2.773-.712-.722 1.742-2.02zM83.853.01h-3.351v57.318h3.352V.01zm191.235 31.833h4.336a215.369 215.369 0 002.599 7.71c.971 2.718 1.852 5.028 2.649 6.94h-3.054a104.165 104.165 0 01-1.411-3.644h-6.372a191.64 191.64 0 00-1.134 3.643h-2.941c.513-1.488 1.076-3.113 1.687-4.874l.547-1.578.282-.815a120.16 120.16 0 012.812-7.382zm1.673 2.35a165.863 165.863 0 00-2.267 6.261h4.856a142.89 142.89 0 01-2.03-6.262h-.559zm12.156-13.068V10.069h-2.684v14.65h3.595c2.01-3.156 4.069-6.685 6.173-10.593v10.593h2.683v-14.65h-3.317c-1.767 3.27-3.916 6.96-6.45 11.056zM313 10.069v2.394h-7.817v3.365h5.575v2.395h-5.575v4.106H313v2.39h-10.584v-14.65H313zm-48.772 0h-4.327a121.04 121.04 0 00-2.812 7.382l-.84 2.428-.01.028-.024.068c-.592 1.71-1.141 3.292-1.641 4.744h2.941a185.08 185.08 0 011.133-3.644h6.373c.286.806.757 2.021 1.41 3.644h3.055c-.798-1.912-1.678-4.221-2.649-6.94a215.503 215.503 0 01-2.599-7.71h-.01zm-4.921 8.612a167.51 167.51 0 012.267-6.262h.56a140.29 140.29 0 002.03 6.262h-4.857zM192.858 58.48c.376.104.673.268.895.482v.005c.223.214.381.468.47.767.09.294.134.667.134 1.105 0 .438-.044.811-.134 1.11a1.79 1.79 0 01-.47.776c-.222.22-.519.384-.895.493-.372.11-.847.18-1.416.21v.88h-1.303v-.88c-.559-.03-1.029-.1-1.396-.21-.371-.11-.663-.274-.876-.493a1.754 1.754 0 01-.45-.771 4.145 4.145 0 01-.129-1.115c0-.443.044-.811.129-1.105.084-.294.237-.548.45-.767.218-.219.51-.378.876-.487.367-.11.832-.175 1.396-.205v-.87h1.303v.87c.569.03 1.039.095 1.416.205zm-3.397 3.793c.179.044.406.07.673.08l.005.004v-3.011c-.336.01-.608.044-.812.1a.9.9 0 00-.47.273.959.959 0 00-.218.443 3.55 3.55 0 00-.054.682c0 .224.01.413.035.557.025.145.064.284.128.409.06.124.153.224.267.293.115.07.268.125.446.17zm3.431-.453c.064-.13.109-.27.129-.413v-.005c.025-.145.034-.334.034-.563 0-.294-.02-.523-.054-.692a.96.96 0 00-.223-.448c-.114-.13-.277-.219-.49-.274a4.004 4.004 0 00-.851-.094v3.021a4.24 4.24 0 00.712-.074 1.64 1.64 0 00.466-.165.69.69 0 00.277-.293zm75.075-21.978c-.232-.343-.574-.607-1.02-.791-.45-.185-1.004-.29-1.673-.319.515-.05.956-.134 1.327-.264.371-.124.668-.284.892-.468a1.91 1.91 0 00.524-.706c.129-.29.213-.578.253-.877a8.45 8.45 0 00.059-1.075c0-.572-.05-1.06-.154-1.458a2.957 2.957 0 00-.534-1.086c-.257-.323-.624-.567-1.104-.721-.481-.155-1.075-.234-1.788-.234h-7.856v14.65h7.951c1.217 0 2.143-.32 2.787-.961.639-.642.961-1.663.961-3.062 0-.587-.045-1.085-.14-1.493a3.223 3.223 0 00-.485-1.13v-.005zm-8.311-5.65h4.47c.465 0 .787.135.975.408.189.274.282.707.282 1.305 0 1.17-.421 1.757-1.257 1.757h-4.47v-3.47zm4.594 9.946h-4.594v-4.211h4.514c.986 0 1.481.716 1.481 2.155 0 1.439-.466 2.056-1.397 2.056h-.004zm-16.962-9.9h-4.93v-2.395h12.629v2.394h-4.93v12.255h-2.769V34.237zM131.257 60.15h-2.38v-1.613h3.638v-1.125h-4.941v6.894h3.743c.574 0 1.015-.159 1.312-.477.302-.32.45-.847.45-1.573 0-.692-.148-1.215-.44-1.569-.292-.353-.757-.532-1.386-.532l.004-.005zm-.217 3.051h-2.163v-1.98h2.124c.465 0 .698.338.698 1.015 0 .677-.218.965-.659.965zm10.466-24.54a4.872 4.872 0 01-.698 1.508l.004-.01a3.232 3.232 0 01-1.242 1.06c-.52.26-1.109.389-1.777.389h-4.842v4.878h-2.768v-14.65h7.535c2.679 0 4.021 1.678 4.021 5.023a6.77 6.77 0 01-.233 1.802zm-4.506.687c.58 0 1.02-.21 1.332-.632.313-.419.465-1.046.465-1.872 0-1.767-.578-2.648-1.737-2.648h-4.114v5.152H137zm1.062 20.183a1.736 1.736 0 00-.683-.318 4.307 4.307 0 00-.99-.095 7.75 7.75 0 00-1.986.264l.228 1.005c.416-.154.916-.228 1.505-.228.267 0 .48.015.639.04.153.03.282.084.376.168a.61.61 0 01.188.33c.03.133.045.313.045.547a6.157 6.157 0 00-1.243-.14c-.253 0-.47.01-.654.035a1.93 1.93 0 00-.529.135 1.06 1.06 0 00-.416.278c-.104.12-.193.274-.252.473a2.24 2.24 0 00-.095.707c0 .662.149 1.115.451 1.354.302.239.852.358 1.648.358.367 0 .768-.04 1.199-.114.43-.075.802-.18 1.119-.309v-2.957c0-.373-.045-.681-.129-.935a1.285 1.285 0 00-.411-.603l-.01.005zm-.678 3.744a3.207 3.207 0 01-1.005.159c-.382 0-.629-.045-.748-.14-.119-.094-.178-.298-.178-.617 0-.154.015-.273.045-.368a.387.387 0 01.168-.21.7.7 0 01.282-.094c.104-.015.253-.02.441-.02.39 0 .723.03.995.085v1.206zm-14.296-2.063l2.659-2.758.703.722-1.738 2.016 1.738 2.061-.694.747-2.668-2.788zm61.624-3.809h-3.544V64.3h1.302v-2.295h2.278c.311 0 .594-.06.836-.184.243-.12.44-.29.585-.498.148-.21.257-.448.326-.707.075-.264.109-.543.109-.846 0-1.573-.629-2.365-1.892-2.365zm.297 3.236c-.143.199-.356.298-.628.298h-1.906v-2.424h1.936c.544 0 .817.413.817 1.245 0 .388-.074.682-.219.88zm-69.187-2.953c.267.16.491.378.659.647l.009.005c.169.269.297.607.387 1.016.089.403.134.886.134 1.443 0 .707-.065 1.3-.199 1.772-.133.473-.342.851-.623 1.125a2.393 2.393 0 01-1.011.582c-.39.115-.871.17-1.44.17a5.88 5.88 0 01-1.183-.105 2.736 2.736 0 01-.906-.358 1.993 1.993 0 01-.659-.672 3.487 3.487 0 01-.386-1.046 7.198 7.198 0 01-.133-1.473c0-.557.044-1.035.133-1.444.089-.408.218-.746.386-1.015a1.92 1.92 0 01.659-.647 2.96 2.96 0 01.906-.343c.332-.065.728-.1 1.178-.1.45 0 .842.03 1.178.1.337.07.639.184.911.343zm-.366 4.684c.059-.19.099-.408.123-.652h-.009c.025-.249.034-.548.034-.906s-.009-.657-.034-.901a2.815 2.815 0 00-.124-.642 1.346 1.346 0 00-.218-.433.907.907 0 00-.351-.254 1.786 1.786 0 00-.49-.13 6.058 6.058 0 00-.664-.03c-.267 0-.49.01-.664.03a1.862 1.862 0 00-.489.13.903.903 0 00-.352.254 1.366 1.366 0 00-.218.433 2.614 2.614 0 00-.124.642c-.019.244-.029.543-.029.9 0 .36.01.663.034.907.025.249.065.463.124.652.059.19.134.338.218.448.09.11.203.2.351.269.149.07.313.114.491.14.178.024.401.034.663.034s.485-.01.663-.035a1.67 1.67 0 00.495-.14.931.931 0 00.352-.268c.084-.11.158-.259.218-.448zm8.305-3.194l-.703-.721-2.659 2.757L123.067 64l.694-.747-1.738-2.06 1.738-2.017zm-18.105-1.773h2.045c.357 1.14.767 2.35 1.223 3.63a66.06 66.06 0 001.248 3.265h-1.436a51.412 51.412 0 01-.664-1.718h-2.999c-.169.518-.347 1.09-.535 1.718h-1.386c.206-.6.43-1.247.67-1.941l.513-1.48c.44-1.273.881-2.428 1.321-3.474zm.793 1.105a79.062 79.062 0 00-1.07 2.947h2.287a69.247 69.247 0 01-.955-2.947h-.262zm61.006-.175a1.953 1.953 0 00-.658-.647 2.995 2.995 0 00-.911-.343c-.337-.07-.728-.1-1.178-.1a6.22 6.22 0 00-1.179.1c-.332.07-.634.184-.906.343-.272.16-.49.378-.658.647-.169.269-.298.607-.387 1.015a6.895 6.895 0 00-.133 1.444c0 .557.045 1.055.133 1.473.089.414.218.762.387 1.046.168.279.386.503.658.672.267.169.574.288.906.358.337.07.733.105 1.183.105.57 0 1.05-.055 1.441-.17a2.39 2.39 0 001.01-.582c.282-.274.49-.652.623-1.125.134-.473.199-1.065.199-1.772a6.79 6.79 0 00-.134-1.444c-.089-.408-.217-.746-.386-1.015l-.01-.005zm-.901 3.385a3.223 3.223 0 01-.124.652c-.059.19-.133.338-.217.448a.939.939 0 01-.352.269 1.69 1.69 0 01-.495.14 4.98 4.98 0 01-.663.034c-.263 0-.486-.01-.664-.035a1.692 1.692 0 01-.49-.14.98.98 0 01-.352-.268 1.466 1.466 0 01-.218-.448 3.299 3.299 0 01-.123-.652 9.244 9.244 0 01-.035-.906c0-.358.01-.657.03-.901.019-.244.059-.458.124-.642.059-.184.133-.329.217-.433a.91.91 0 01.352-.254 1.87 1.87 0 01.49-.13c.173-.02.396-.03.663-.03.268 0 .491.01.664.03.174.02.337.065.49.13a.9.9 0 01.351.254c.085.104.159.249.219.433.059.184.103.398.123.642.025.244.034.543.034.9 0 .36-.009.658-.034.907h.01zm11.736 1.295c.104-.084.307-.13.604-.13v-.004c.312 0 .525.04.629.124.104.085.158.274.158.568 0 .318-.054.527-.163.627-.11.1-.317.15-.629.15-.292 0-.495-.05-.599-.15-.104-.1-.159-.309-.159-.622 0-.289.055-.478.159-.563zm-18.506-5.61h-4.539c-.084 2.116-.431 4.022-1.039 5.71h-1.139l.217 2.703h1.224v-1.518h5.153v1.518h1.223l.208-2.703h-1.297v-5.71h-.011zm-1.301 5.71h-2.852c.406-1.27.674-2.798.807-4.585h2.045v4.585zm-9.481-1.136c.124.124.248.279.377.463h-.005c.129.184.277.433.451.747.172.313.365.681.569 1.115h-1.426a10.218 10.218 0 00-.584-1.095 3.559 3.559 0 00-.535-.692 2.263 2.263 0 00-.476-.369 1.934 1.934 0 00-.48-.174v2.335h-1.222V59.27h1.222v2.42c.491-.538 1.139-1.345 1.941-2.42h1.446c-.961 1.294-1.595 2.06-1.896 2.305.113.044.217.094.301.144.084.05.193.134.317.259zm-5.919-.846h-1.97V59.27h-1.219v5.038h1.219v-2.136h1.97v2.136h1.223V59.27h-1.223v1.862zm13.901-18.339c-.282 1.006-.723 1.807-1.322 2.39h-.005c-.6.582-1.317.995-2.144 1.239-.827.244-1.846.363-3.054.363-.956 0-1.798-.074-2.511-.224a6.094 6.094 0 01-1.931-.761 4.13 4.13 0 01-1.396-1.424c-.356-.592-.628-1.334-.816-2.215-.188-.881-.283-1.941-.283-3.126 0-1.185.099-2.21.287-3.071.193-.861.461-1.578.818-2.156a4.037 4.037 0 011.401-1.378 6.15 6.15 0 011.931-.732c.707-.145 1.539-.214 2.5-.214.96 0 1.792.07 2.504.214a6.16 6.16 0 011.931.732 4.06 4.06 0 011.407 1.378c.361.573.633 1.295.821 2.156.188.86.283 1.886.283 3.071 0 1.498-.139 2.748-.421 3.758zm-6.525 1.479c.559 0 1.029-.025 1.41-.075a3.63 3.63 0 001.045-.299 1.97 1.97 0 00.752-.572c.184-.234.342-.553.466-.95.129-.404.213-.862.263-1.385a23.3 23.3 0 00.068-1.921c0-.762-.02-1.399-.068-1.917a6.4 6.4 0 00-.268-1.363c-.129-.394-.287-.702-.466-.921a1.877 1.877 0 00-.752-.538 3.653 3.653 0 00-1.034-.274 12.28 12.28 0 00-1.416-.064 12.3 12.3 0 00-1.417.064c-.371.045-.712.14-1.034.274-.322.134-.575.314-.752.538-.184.219-.337.527-.466.92a6.01 6.01 0 00-.263 1.364 23.4 23.4 0 00-.064 1.917c0 .761.02 1.399.07 1.921.049.523.138.986.262 1.384.128.398.277.717.465.95.189.235.436.429.748.573.312.15.658.25 1.039.299.382.05.852.075 1.412.075z" fill="#000"/></g><defs><clipPath id="clip0_651_5905"><path fill="#fff" d="M0 0h313v66H0z"/></clipPath></defs></svg>