<svg width="488" height="40" fill="none" xmlns="http://www.w3.org/2000/svg"><g clip-path="url(#clip0_651_5896)"><path d="M487.5 21.97v11.935c-.062.06-.17.115-.182.183-.77 4.265-3.143 5.658-7.506 5.759-7.318.166-14.642.103-21.962.12-2.148.005-4.298-.011-6.447-.085-5.187-.174-7.421-2.318-7.792-7.462-.071-.98-.01-1.97-.01-3.015 2.583-.527 5.074-1.038 7.566-1.54.165-.033.344-.006.622-.006v4.334h27.393v-8.58h-1.572c-7.964-.008-15.923-.003-23.887-.04-1.086-.006-2.185-.17-3.259-.361-3.442-.615-4.915-3.007-5.099-6.144-.197-3.373-.333-6.8.031-10.145.478-4.38 2.092-6.146 7.348-6.305 8.913-.27 17.847-.278 26.763 0 5.782.18 7.592 2.797 7.493 8.894-.006.26-.334.68-.585.74-2.466.614-4.948 1.169-7.597 1.778V7.683h-25.31v8.069h1.422c7.595 0 15.191-.025 22.786.021 1.497.009 3.001.238 4.488.462 2.767.415 4.329 2.11 4.972 4.735.083.338.211.666.321 1h.003zM259.264 9.691c.025 6.914.025 13.831-.004 20.745-.005 1.215-.08 2.447-.298 3.64-.719 3.927-2.848 5.699-7.197 5.77-5.623.095-11.25.022-16.875.022v.038c-5.399 0-10.796.019-16.192-.016-1.042-.006-2.096-.145-3.119-.344-3.123-.607-4.833-2.655-5.116-6.144-.144-1.753-.241-3.517-.233-5.276.032-6.958.01-13.918.219-20.87.14-4.667 2.233-6.622 6.953-7.01a59.68 59.68 0 014.787-.216c8.969-.019 17.934-.027 26.902.009 1.456.005 2.932.12 4.357.398 3.591.705 5 2.196 5.55 5.745a24.06 24.06 0 01.269 3.507l-.003.002zm-9.575-2.274h-29.818V32.19h29.818V7.418zm120.827-.49c.128 2.39.156 4.788.151 7.18-.017 6.19 0 12.38-.141 18.568-.107 4.787-2.461 7.084-7.381 7.182-5.669.114-11.343.027-17.015.024-5.579 0-11.162.017-16.742-.019-.899-.005-1.825-.158-2.699-.393-2.976-.795-4.526-2.755-4.752-6.005a91.67 91.67 0 01-.231-5.813c-.03-6.057-.027-12.113 0-18.167.005-1.169.088-2.354.293-3.504.644-3.574 2.423-5.22 6.124-5.693a32.038 32.038 0 013.965-.254 6217.07 6217.07 0 0128.546 0c1.319.003 2.654.093 3.957.303 3.874.62 5.712 2.657 5.928 6.59l-.003.002zm-9.358.495h-29.855V32.24h29.855V7.423zM187.024 25.257c5.853 4.8 11.704 9.604 17.723 14.54-.474.08-.757.167-1.038.167-3.795-.005-7.593.008-11.385-.065-.603-.011-1.338-.298-1.774-.702-4.838-4.478-9.624-9.011-14.445-13.503-.366-.339-.903-.685-1.374-.697-2.558-.068-5.117-.032-7.841-.032v15.007h-3.787c-1.373 0-2.748-.062-4.116.02-1.117.068-1.496-.265-1.482-1.423.06-5.016.022-10.033.022-15.049 0-7.367.022-14.731-.033-22.099-.009-1.168.379-1.422 1.485-1.417 10.887.036 21.775.014 32.661.038 1.09 0 2.197.107 3.266.314 3.668.71 5.603 3.015 5.647 6.734.042 3.389.008 6.777.011 10.169.005 5.008-2.534 7.583-7.638 7.692-1.92.041-3.839.006-5.758.006l-.144.303v-.003zm1.578-7.356c1.951-.009 2.815-.885 2.888-2.821.049-1.352.01-2.709.01-4.063 0-3.007-.563-3.613-3.586-3.859-.271-.022-.546-.022-.821-.022-6.216 0-12.432-.002-18.649.006-.522 0-1.044.076-1.593.12v10.57c.286.047.459.096.632.096 7.038 0 14.078.008 21.115-.027h.004zM45.237.52c-.491.018-1.126.365-1.428.761C39 7.538 34.233 13.826 29.454 20.107c-.996 1.31-2.001 2.619-3.058 4C20.426 16.427 14.589 8.906 8.735 1.4c-.28-.36-.712-.843-1.085-.857C5.291.462 2.93.501.5.501v39.351h7.625V12.827c.934 1.34 1.697 2.512 2.532 3.632 4.445 5.955 8.913 11.895 13.363 17.847 1.025 1.371 2.378 1.399 3.41.025 2.343-3.119 4.693-6.229 7.016-9.36 2.99-4.029 5.956-8.075 8.875-12.037v26.962h8.457V.485c-2.255 0-4.402-.047-6.543.035h.002zm22.804 22.175h18.004V15.67H68.041V6.978h31.102V.097H58.549v39.772h40.88v-7.64h-31.39v-9.533h.002zM311.715 5.749c.189 4.364.211 8.752-.003 13.113-.166 3.364-3.044 5.502-7.085 5.538-8.228.07-16.462.054-24.69.073h-1.702v15.41h-9.204V.025h1.329c10.745 0 21.491-.033 32.235.033 1.71.01 3.46.303 5.113.745 2.468.66 3.902 2.526 4.007 4.945zm-8.833 6.087c.005-4.115-.567-4.689-4.736-4.694-6.262-.008-12.522 0-18.785.01-.346 0-.69.055-1.065.088v10.188c3.607 0 7.075.008 10.54 0 3.702-.01 7.406 0 11.107-.07 1.997-.039 2.694-.727 2.874-2.68.088-.942.061-1.895.061-2.842h.004zM108.544.029c-.733 0-1.474-.063-2.191.038-.285.038-.738.434-.744.674-.058 2.157-.033 4.315-.033 6.647h18.144v32.56c2.754 0 5.393-.057 8.029.027 1.131.036 1.474-.248 1.469-1.403-.049-9.765-.03-19.533-.03-29.297v-1.98h18.13V.025h-42.771l-.003.004zm307.967 32.23c-8.876.051-17.746.027-26.622.027h-1.575v-1.778c0-9.716-.014-19.431.022-29.147.003-.97-.198-1.384-1.273-1.354a141.18 141.18 0 01-7.133 0c-.942-.022-1.142.344-1.139 1.193.022 12.517.027 25.034 0 37.552 0 .936.248 1.226 1.23 1.223 12.167-.027 24.333-.008 36.5-.005.448 0 .893-.038 1.486-.063 0-2.163-.074-4.153.027-6.136.063-1.204-.308-1.518-1.523-1.513zM434.555.008c-2.239.05-4.484.074-6.722-.005-1.171-.044-1.584.257-1.562 1.496.078 4.38.03 8.766.03 13.148V39.96c3.01 0 5.876.03 8.743-.046.275-.008.762-.68.763-1.043.039-12.561.02-25.12.051-37.68 0-1.016-.401-1.196-1.299-1.177l-.004-.006z" fill="#000"/></g><defs><clipPath id="clip0_651_5896"><path fill="#fff" transform="translate(.5)" d="M0 0h487v40H0z"/></clipPath></defs></svg>