<svg width="232" height="66" fill="none" xmlns="http://www.w3.org/2000/svg"><g clip-path="url(#clip0_651_5881)" fill="#000"><path d="M116.805 66v-9.88h23.5V66h-23.5zm71.297-49.154V49.49c0 22.013 43.898 22.013 43.898 0V16.846c0-22.463-43.898-22.463-43.898 0zm28.828 37.189c0 4.125-13.798 4.125-13.798 0V11.362c0-4.258 13.798-4.258 13.798 0v42.673zM103.196 3.28s-7.4 14.01-15.16 28.569L71.809 3.226H57.99l23.43 41.003c-1.108 2.065-2.181 4.05-3.195 5.928-3.186 5.883-10.91 6.23-17.208 1.976l-.238 11.12c5.11 2.544 10.279 2.544 12.823 2.544 9.136 0 15.96-11.545 17.034-13.496 1.074-1.952 2.321-4.16 3.723-6.65L116.805 3.28h-13.609zM21.77 55.117c-2.251-.386-6.55-2.095-6.55-9.806V21.77c0-7.139 4.299-8.591 6.55-8.971a43.38 43.38 0 017.317-.574 80.52 80.52 0 0118.306 2.47V4.239c-4.99-1.625-11.154-2.262-18.495-2.262a63.34 63.34 0 00-12.863 1.2C12.217 3.976 0 7.988 0 17.537v30.975C0 61.8 12.217 63.94 16.035 64.715a63 63 0 0012.863 1.196c5.09 0 14.335-1.774 19.454-3.167V51.871c-.9.321-9.528 3.829-19.265 3.829a43.903 43.903 0 01-7.317-.583zM163.015 1.981l-13.39 9.174V24.69l13.39-9.174V66h12.715V1.981h-12.715z"/></g><defs><clipPath id="clip0_651_5881"><path fill="#fff" d="M0 0h232v66H0z"/></clipPath></defs></svg>