<?xml version="1.0" encoding="utf-8"?><svg viewBox="0 0 54 54" xmlns="http://www.w3.org/2000/svg" xmlns:xlink="http://www.w3.org/1999/xlink"><style>:root>svg{display:none}:root>svg:target{display:block}</style><svg fill="none" viewBox="0 0 38 38" id="icon-arrow-top" xmlns="http://www.w3.org/2000/svg"><path d="M18.623 38V12.544M1 20L19 2l18 18" stroke="currentColor" stroke-width="2"/></svg><svg fill="none" viewBox="0 0 38 38" id="icon-arrow-top-left" xmlns="http://www.w3.org/2000/svg"><path d="M31.994 32.461l-18-18M31.727 7.272H6.27v25.456" stroke="currentColor" stroke-width="2"/></svg><svg fill="none" viewBox="0 0 53 52" id="icon-arrow-top-right" xmlns="http://www.w3.org/2000/svg"><g stroke="currentColor" stroke-width="2"><path d="M13.773 39.273l18.384-18.385M39.5 39V13h-26"/></g></svg><svg fill="none" viewBox="0 0 54 54" id="icon-charge" xmlns="http://www.w3.org/2000/svg"><path fill-rule="evenodd" clip-rule="evenodd" d="M26.974 7.333c-6.983 0-12.783 5.387-13.297 12.351l-1.583 21.427H9.833v8.445h35.889V41.11H43.46L40.966 7.333H26.974zm5.485 12.048l-2.986-2.985-7.464 7.464 5.598 5.598-5.224 5.224 2.985 2.986 8.21-8.21-5.597-5.598 4.478-4.479z" fill="#000"/><path d="M47.278 32.89L46.167 15.11h-7.778" stroke="#000" stroke-width="4.444" stroke-miterlimit="2.672"/></svg><svg fill="none" viewBox="0 0 39 39" id="icon-close" xmlns="http://www.w3.org/2000/svg"><path d="M38 38L19.615 19.615 38 1.23M1 38l18.385-18.385L1 1.23" stroke="currentColor" stroke-width="2"/></svg><svg fill="none" viewBox="0 0 24 24" id="icon-file" xmlns="http://www.w3.org/2000/svg"><path d="M18 20H6V4h8.21L18 7.739V20z" stroke="currentColor" stroke-width="2" stroke-miterlimit="2.672"/></svg><svg fill="none" viewBox="0 0 54 54" id="icon-parking" xmlns="http://www.w3.org/2000/svg"><path fill-rule="evenodd" clip-rule="evenodd" d="M14.168 5.111h25.92l7.246 44.445H6.922L14.168 5.11zm6.5 22.223v17.23h4.553v-4.676h3.816c2.117 0 3.832-.6 5.144-1.797 1.33-1.215 1.994-2.708 1.994-4.48 0-1.773-.664-3.258-1.994-4.456-1.312-1.214-3.027-1.821-5.144-1.821h-8.37zm8.246 8.369H25.22v-4.185h3.693c.853 0 1.493.189 1.92.566.443.378.664.887.664 1.527 0 .64-.221 1.148-.664 1.526-.427.377-1.067.566-1.92.566z" fill="#000"/></svg><svg fill="none" viewBox="0 0 54 54" id="icon-wash" xmlns="http://www.w3.org/2000/svg"><path fill-rule="evenodd" clip-rule="evenodd" d="M23.393 8.08c1.568-2.613 5.379-2.539 6.843.133L40.27 26.51a15.58 15.58 0 01-3.756 19.517c-5.637 4.643-13.786 4.691-19.53.224-6.155-4.787-7.969-13.422-4.131-20.244l3.23-5.744 7.31-12.183zm7.488 23.666a5.086 5.086 0 01-.983 5.81l-.364.364 2.84 2.838.363-.363a9.101 9.101 0 001.758-10.396l-3.614 1.747z" fill="#000"/></svg></svg>