<?xml version="1.0" encoding="utf-8"?><svg viewBox="0 0 54 54" xmlns="http://www.w3.org/2000/svg" xmlns:xlink="http://www.w3.org/1999/xlink"><style>:root>svg{display:none}:root>svg:target{display:block}</style><svg fill="none" viewBox="0 0 52 52" id="icon-arrow-bottom" xmlns="http://www.w3.org/2000/svg"><path d="M26.333.667v34.667M50.333 25.18L25.82 49.695 1.307 25.181" stroke="#000" stroke-width="2.667"/></svg><svg fill="none" viewBox="0 0 38 21" id="icon-arrow-down" xmlns="http://www.w3.org/2000/svg"><path d="M37 1L19.322 18.678 1.645 1" stroke="currentColor" stroke-width="2"/></svg><svg fill="none" viewBox="0 0 38 38" id="icon-arrow-top" xmlns="http://www.w3.org/2000/svg"><path d="M18.623 38V12.544M1 20L19 2l18 18" stroke="currentColor" stroke-width="2"/></svg><svg fill="none" viewBox="0 0 38 38" id="icon-arrow-top-left" xmlns="http://www.w3.org/2000/svg"><path d="M31.994 32.461l-18-18M31.727 7.272H6.27v25.456" stroke="currentColor" stroke-width="2"/></svg><svg fill="none" viewBox="0 0 53 52" id="icon-arrow-top-right" xmlns="http://www.w3.org/2000/svg"><g stroke="currentColor" stroke-width="2"><path d="M13.773 39.273l18.384-18.385M39.5 39V13h-26"/></g></svg><svg fill="none" viewBox="0 0 54 54" id="icon-charge" xmlns="http://www.w3.org/2000/svg"><path fill-rule="evenodd" clip-rule="evenodd" d="M26.974 7.333c-6.983 0-12.783 5.387-13.297 12.351l-1.583 21.427H9.833v8.445h35.889V41.11H43.46L40.966 7.333H26.974zm5.485 12.048l-2.986-2.985-7.464 7.464 5.598 5.598-5.224 5.224 2.985 2.986 8.21-8.21-5.597-5.598 4.478-4.479z" fill="#000"/><path d="M47.278 32.89L46.167 15.11h-7.778" stroke="#000" stroke-width="4.444" stroke-miterlimit="2.672"/></svg><svg fill="none" viewBox="0 0 39 39" id="icon-close" xmlns="http://www.w3.org/2000/svg"><path d="M38 38L19.615 19.615 38 1.23M1 38l18.385-18.385L1 1.23" stroke="currentColor" stroke-width="2"/></svg><svg fill="none" viewBox="0 0 24 24" id="icon-file" xmlns="http://www.w3.org/2000/svg"><path d="M18 20H6V4h8.21L18 7.739V20z" stroke="currentColor" stroke-width="2" stroke-miterlimit="2.672"/></svg><svg fill="none" viewBox="0 0 24 24" id="icon-hospitals" xmlns="http://www.w3.org/2000/svg"><path d="M9 3V2H8v1h1zm6 0h1V2h-1v1zM9 9v1h1V9H9zM3 9V8H2v1h1zm0 6H2v1h1v-1zm6 0h1v-1H9v1zm0 6H8v1h1v-1zm6 0v1h1v-1h-1zm0-6v-1h-1v1h1zm6 0v1h1v-1h-1zm0-6h1V8h-1v1zm-6 0h-1v1h1V9zM9 4h6V2H9v2zm1 5V3H8v6h2zm-7 1h6V8H3v2zm1 5V9H2v6h2zm5-1H3v2h6v-2zm1 7v-6H8v6h2zm5-1H9v2h6v-2zm-1-5v6h2v-6h-2zm7-1h-6v2h6v-2zm-1-5v6h2V9h-2zm-5 1h6V8h-6v2zm-1-7v6h2V3h-2z" fill="currentColor"/></svg><svg fill="none" viewBox="0 0 31 31" id="icon-info" xmlns="http://www.w3.org/2000/svg"><circle cx="15.5" cy="15.5" r="14.5" stroke="#000" stroke-width="2"/><path d="M16.738 23.55h-2.436V13.034h2.436V23.55zM17 9.958c0 .456-.148.817-.443 1.086a1.506 1.506 0 01-1.047.402c-.416 0-.772-.134-1.067-.402-.295-.269-.443-.63-.443-1.086 0-.47.148-.838.443-1.106a1.532 1.532 0 011.067-.402c.403 0 .752.134 1.047.402.295.268.443.637.443 1.106z" fill="#000"/></svg><svg fill="none" viewBox="0 0 24 24" id="icon-lighthouse" xmlns="http://www.w3.org/2000/svg"><path d="M6 21L7.182 8.052h10.636L19 21H6zM6 18.138l12-5.043M8.363 8.052V4.017h8.273v4.035H8.363zM7.182 4.017v-.504L12.5 2l5.318 1.513v.504" stroke="currentColor" stroke-width="2" stroke-miterlimit="2.672"/></svg><svg fill="none" viewBox="0 0 54 54" id="icon-parking" xmlns="http://www.w3.org/2000/svg"><path fill-rule="evenodd" clip-rule="evenodd" d="M14.168 5.111h25.92l7.246 44.445H6.922L14.168 5.11zm6.5 22.223v17.23h4.553v-4.676h3.816c2.117 0 3.832-.6 5.144-1.797 1.33-1.215 1.994-2.708 1.994-4.48 0-1.773-.664-3.258-1.994-4.456-1.312-1.214-3.027-1.821-5.144-1.821h-8.37zm8.246 8.369H25.22v-4.185h3.693c.853 0 1.493.189 1.92.566.443.378.664.887.664 1.527 0 .64-.221 1.148-.664 1.526-.427.377-1.067.566-1.92.566z" fill="#000"/></svg><svg fill="none" viewBox="0 0 24 24" id="icon-restaurants" xmlns="http://www.w3.org/2000/svg"><path d="M10 22v-6.162m0 0V3h-.6v0A5.4 5.4 0 004 8.4v7.438h6zM17 9h-3V2m3 7h3V2m-3 7v13m0-13V2" stroke="currentColor" stroke-width="2" stroke-miterlimit="2.672"/></svg><svg fill="none" viewBox="0 0 24 24" id="icon-shop" xmlns="http://www.w3.org/2000/svg"><path d="M18.546 8.727L13.636 3M5.455 8.727L10.364 3m-6.546 9.5h16.364L18.546 21H5.455l-1.637-8.5zM3 8.727h18V12.5H3V8.727z" stroke="currentColor" stroke-width="2"/></svg><svg fill="none" viewBox="0 0 54 54" id="icon-wash" xmlns="http://www.w3.org/2000/svg"><path fill-rule="evenodd" clip-rule="evenodd" d="M23.393 8.08c1.568-2.613 5.379-2.539 6.843.133L40.27 26.51a15.58 15.58 0 01-3.756 19.517c-5.637 4.643-13.786 4.691-19.53.224-6.155-4.787-7.969-13.422-4.131-20.244l3.23-5.744 7.31-12.183zm7.488 23.666a5.086 5.086 0 01-.983 5.81l-.364.364 2.84 2.838.363-.363a9.101 9.101 0 001.758-10.396l-3.614 1.747z" fill="#000"/></svg></svg>