<svg width="68" height="68" fill="none" xmlns="http://www.w3.org/2000/svg"><path fill="#122090" d="M0 0h68v68H0z"/><path fill-rule="evenodd" clip-rule="evenodd" d="M5.1 45.9h15.3l-2.091 3.561h-4.016v11.74h-3.83V49.46H5.1V45.9zm35.786 3.561c-.412 0-.706.265-.706.712v6.776c0 .447.294.691.706.691h7.512v3.56h-7.512c-2.63 0-4.335-1.647-4.335-4.251v-6.776c0-2.584 1.706-4.273 4.335-4.273H49.3l-1.981 3.561h-6.434zM30.294 57.76h-5.351c-.764 0-1.321-.565-1.321-1.34 0-.795.558-1.36 1.32-1.36h5.35v2.7h.002zm-.701-11.815h-6.926l-2.024 3.55h8.95c.44 0 .7.265.7.71v1.623h-5.805c-2.663 0-4.625 1.988-4.625 4.686s1.962 4.686 4.625 4.686h9.51V50.205c0-2.576-1.742-4.26-4.405-4.26zm24.892 3.516c-.412 0-.706.265-.706.712v6.776c0 .447.294.691.706.691h7.512v3.56h-7.512c-2.628 0-4.335-1.647-4.335-4.251v-6.776c0-2.584 1.707-4.273 4.335-4.273H62.9l-1.982 3.561h-6.433z" fill="#fff"/></svg>